<svg width="24" height="24" viewBox="0 0 24 24" fill="none" xmlns="http://www.w3.org/2000/svg">
<path fill-rule="evenodd" clip-rule="evenodd" d="M9.95624 2H14.0438C15.4068 1.99999 16.4908 1.99999 17.3654 2.07144C18.261 2.14462 19.0247 2.29768 19.7239 2.65396C20.8529 3.2292 21.7708 4.14709 22.346 5.27606C22.9731 6.50671 22.9957 8.02641 22.9996 10.2707C23 10.5034 23 11.7471 23 12C23 12.5523 22.5523 13 22 13C21.4477 13 21 12.5523 21 12C21 11.8702 21 11.4841 20.9999 11.1062C20.5105 11.0362 20.0097 11 19.5 11C14.2106 11 9.83429 14.9115 9.10637 19.9992C9.38574 20 9.68282 20 10 20H13C13.5523 20 14 20.4477 14 21C14 21.5523 13.5523 22 13 22H9.99261C9.23987 22 8.57613 22 7.99228 21.989C6.45111 21.9599 5.28234 21.8588 4.27606 21.346C3.14709 20.7708 2.2292 19.8529 1.65396 18.7239C1.29768 18.0247 1.14462 17.261 1.07144 16.3654C0.999986 15.4908 0.999992 14.4068 1 13.0438V10.9562C0.999992 9.5932 0.999986 8.50917 1.07144 7.63458C1.14462 6.73898 1.29768 5.9753 1.65396 5.27606C2.2292 4.14708 3.14708 3.2292 4.27606 2.65396C4.9753 2.29768 5.73898 2.14462 6.63458 2.07144C7.50917 1.99999 8.5932 1.99999 9.95624 2ZM7.09455 19.9555C7.85574 13.7803 13.1194 9 19.5 9C20.0037 9 20.5008 9.02984 20.9895 9.08792C20.9607 7.52262 20.8613 6.76745 20.564 6.18404C20.1805 5.43139 19.5686 4.81947 18.816 4.43597C18.4457 4.24729 17.9745 4.12787 17.2026 4.0648C16.419 4.00078 15.4166 4 14 4H10C8.58337 4 7.58104 4.00078 6.79744 4.0648C6.02552 4.12787 5.55435 4.24729 5.18404 4.43597C4.43139 4.81947 3.81947 5.43139 3.43597 6.18404C3.24729 6.55435 3.12787 7.02552 3.0648 7.79744C3.00078 8.58104 3 9.58337 3 11V13C3 14.4166 3.00078 15.419 3.0648 16.2026C3.12787 16.9745 3.24729 17.4457 3.43597 17.816C3.81947 18.5686 4.43139 19.1805 5.18404 19.564C5.61216 19.7822 6.1534 19.8999 7.09455 19.9555ZM5 8.5C5 7.11929 6.11929 6 7.5 6C8.88071 6 10 7.11929 10 8.5C10 9.88071 8.88071 11 7.5 11C6.11929 11 5 9.88071 5 8.5ZM7.5 8C7.22386 8 7 8.22386 7 8.5C7 8.77614 7.22386 9 7.5 9C7.77614 9 8 8.77614 8 8.5C8 8.22386 7.77614 8 7.5 8ZM19 14C19.5523 14 20 14.4477 20 15V17H22C22.5523 17 23 17.4477 23 18C23 18.5523 22.5523 19 22 19H20V21C20 21.5523 19.5523 22 19 22C18.4477 22 18 21.5523 18 21V19H16C15.4477 19 15 18.5523 15 18C15 17.4477 15.4477 17 16 17H18V15C18 14.4477 18.4477 14 19 14Z" fill="white"/>
</svg>
