<svg width="23" height="24" viewBox="0 0 23 24" fill="none" xmlns="http://www.w3.org/2000/svg">
<path d="M6.9668 5.37451L4.4668 11.8745L5.9668 13.3745L11.4668 11.3745L13.4668 6.87451L11.4668 2.87451L6.9668 5.37451Z" fill="white"/>
<path d="M15.8979 2.29063C17.1865 2.20474 18.457 2.68238 19.4145 3.61778C20.2915 4.63916 20.739 5.99442 20.6674 7.37852V16.2945C20.7479 17.6785 20.2922 19.034 19.4243 20.0553C18.4667 20.9907 17.1866 21.4683 15.8979 21.3824H7.53952C6.24189 21.4683 4.97071 20.9908 4.01315 20.0553C3.13627 19.034 2.68856 17.6785 2.76901 16.2945V7.37852C2.6885 5.99454 3.13629 4.63912 4.01315 3.61778C4.97071 2.6823 6.24189 2.20472 7.53952 2.29063H15.8979ZM15.6645 6.65489C15.1097 6.06306 14.2155 6.06306 13.6606 6.65489L13.061 7.30333C12.9715 7.39878 12.9715 7.56139 13.061 7.65684C13.0804 7.67744 14.4758 9.15668 14.5102 9.20274C14.6087 9.31728 14.6713 9.47039 14.6714 9.6422C14.6714 9.98584 14.4117 10.2721 14.0805 10.2721C13.9285 10.272 13.7853 10.2051 13.687 10.1002L12.1928 8.51622C12.1212 8.43985 11.9959 8.43985 11.9243 8.51622L7.65573 13.069C7.36046 13.3839 7.19013 13.804 7.18112 14.2525L7.12741 16.5152C7.12743 16.6392 7.16322 16.7536 7.24362 16.8395C7.32416 16.9254 7.43197 16.9732 7.54831 16.9732H9.65085C10.0803 16.9732 10.4919 16.7918 10.8051 16.4674L16.8286 10.024C17.3743 9.43219 17.3744 8.47736 16.8286 7.89512L15.6645 6.65489Z" fill="#B02770"/>
</svg>
