<svg width="20" height="20" viewBox="0 0 20 20" fill="none" xmlns="http://www.w3.org/2000/svg">
<g clip-path="url(#clip0_70_29154)">
<path d="M18.9892 10.1725L9.04552 0.228836C8.74041 -0.0762787 8.24576 -0.0762787 7.94069 0.228836C7.63561 0.533951 7.63557 1.0286 7.94069 1.33367L8.65783 2.05081L5.04754 9.75103L1.4671 13.3315C0.553283 14.2453 0.553283 15.7322 1.4671 16.646L2.57198 17.7509C3.48795 18.6669 4.97055 18.6669 5.88652 17.7509L6.80191 16.8355L9.25982 19.2934C9.70462 19.749 10.2999 19.9998 10.9368 19.9998C12.2291 19.9998 13.2805 18.9484 13.2805 17.6561C13.2805 17.0192 13.0297 16.4239 12.5741 15.9791L10.351 13.756L17.1672 10.5601L17.8843 11.2773C18.1894 11.5824 18.6841 11.5824 18.9892 11.2773C19.2942 10.9722 19.2942 10.4775 18.9892 10.1725ZM4.78165 16.6461C4.47634 16.9514 3.98216 16.9514 3.67681 16.6461L2.57194 15.5412C2.26733 15.2366 2.26733 14.7409 2.57194 14.4363L5.69676 11.3115L7.90647 13.5212L4.78165 16.6461ZM11.481 17.0956C11.6338 17.2441 11.718 17.4432 11.718 17.6562C11.718 18.0869 11.3675 18.4374 10.9368 18.4374C10.7238 18.4374 10.5247 18.3532 10.3762 18.2004C10.3736 18.1976 7.90666 15.7307 7.90666 15.7307L9.01126 14.6261C9.01134 14.6261 11.4782 17.093 11.481 17.0956ZM9.17607 12.5811L6.63683 10.0419L9.83266 3.22569L15.9923 9.38525L9.17607 12.5811Z" fill="#A5A5A5" stroke="white" stroke-width="0.3"/>
<path d="M16.1503 5.0697C16.3459 5.45423 16.8163 5.60739 17.2008 5.41177L18.7911 4.60275C19.1756 4.40708 19.3288 3.93673 19.1331 3.55216C18.9375 3.16759 18.4672 3.01446 18.0826 3.21009L16.4924 4.01911C16.1078 4.21478 15.9546 4.68513 16.1503 5.0697Z" fill="#A5A5A5" stroke="white" stroke-width="0.3"/>
<path d="M14.1486 3.06802C14.5332 3.26364 15.0035 3.11048 15.1992 2.72591L16.0081 1.13564C16.2038 0.751065 16.0506 0.280714 15.6661 0.0850887C15.2815 -0.110536 14.8112 0.0425887 14.6155 0.427198L13.8065 2.01747C13.6109 2.40204 13.764 2.87239 14.1486 3.06802Z" fill="#A5A5A5" stroke="white" stroke-width="0.3"/>
</g>
<defs>
<clipPath id="clip0_70_29154">
<rect width="20" height="20" fill="white"/>
</clipPath>
</defs>
</svg>
