<svg width="20" height="20" viewBox="0 0 20 20" fill="none" xmlns="http://www.w3.org/2000/svg">
<g clip-path="url(#clip0_70_30902)">
<path d="M18.9893 10.1725L9.04564 0.228836C8.74053 -0.0762787 8.24588 -0.0762787 7.94081 0.228836C7.63573 0.533951 7.63569 1.0286 7.94081 1.33367L8.65795 2.05081L5.04767 9.75103L1.46723 13.3315C0.553405 14.2453 0.553405 15.7322 1.46723 16.646L2.5721 17.7509C3.48807 18.6669 4.97068 18.6669 5.88664 17.7509L6.80203 16.8355L9.25994 19.2934C9.70474 19.749 10.3 19.9998 10.9369 19.9998C12.2293 19.9998 13.2806 18.9484 13.2806 17.6561C13.2806 17.0192 13.0299 16.4239 12.5742 15.9791L10.3511 13.756L17.1673 10.5601L17.8844 11.2773C18.1896 11.5824 18.6842 11.5824 18.9893 11.2773C19.2944 10.9722 19.2944 10.4775 18.9893 10.1725ZM4.78177 16.6461C4.47646 16.9514 3.98228 16.9514 3.67694 16.6461L2.57206 15.5412C2.26745 15.2366 2.26745 14.7409 2.57206 14.4363L5.69688 11.3115L7.90659 13.5212L4.78177 16.6461ZM11.4811 17.0956C11.6339 17.2441 11.7181 17.4432 11.7181 17.6562C11.7181 18.0869 11.3677 18.4374 10.9369 18.4374C10.7239 18.4374 10.5248 18.3532 10.3763 18.2004C10.3737 18.1976 7.90679 15.7307 7.90679 15.7307L9.01139 14.6261C9.01146 14.6261 11.4784 17.093 11.4811 17.0956ZM9.17619 12.5811L6.63695 10.0419L9.83279 3.22569L15.9924 9.38525L9.17619 12.5811Z" fill="#B02770" stroke="white" stroke-width="0.3"/>
<path d="M16.1503 5.0697C16.3459 5.45423 16.8163 5.60739 17.2008 5.41177L18.7911 4.60275C19.1756 4.40708 19.3288 3.93673 19.1331 3.55216C18.9375 3.16759 18.4672 3.01446 18.0826 3.21009L16.4924 4.01911C16.1078 4.21478 15.9546 4.68513 16.1503 5.0697Z" fill="#B02770" stroke="white" stroke-width="0.3"/>
<path d="M14.1486 3.06802C14.5332 3.26364 15.0035 3.11048 15.1992 2.72591L16.0081 1.13564C16.2038 0.751065 16.0506 0.280714 15.6661 0.0850887C15.2815 -0.110536 14.8112 0.0425887 14.6155 0.427198L13.8065 2.01747C13.6109 2.40204 13.764 2.87239 14.1486 3.06802Z" fill="#B02770" stroke="white" stroke-width="0.3"/>
</g>
<defs>
<clipPath id="clip0_70_30902">
<rect width="20" height="20" fill="white"/>
</clipPath>
</defs>
</svg>
