<svg width="16" height="17" viewBox="0 0 16 17" fill="none" xmlns="http://www.w3.org/2000/svg">
<g clip-path="url(#clip0_174_14463)">
<path d="M13.7767 11.8428C12.8223 10.8884 12.2861 9.59395 12.2861 8.24422V6.98176C12.2861 4.97355 10.9048 3.28817 9.04056 2.82332V1.54025C9.04056 0.965764 8.5748 0.5 8.00027 0.5C7.42575 0.5 6.96002 0.965764 6.96002 1.54025V2.82329C5.09573 3.28817 3.71444 4.97352 3.71444 6.98172V8.24418C3.71444 9.59391 3.17824 10.8883 2.22385 11.8428C1.80435 12.2623 1.67885 12.8932 1.90589 13.4413C2.13292 13.9894 2.66777 14.3468 3.26104 14.3468H5.84705C5.84705 15.536 6.81109 16.5 8.00027 16.5C9.18945 16.5 10.1535 15.536 10.1535 14.3468H12.7395C13.3328 14.3468 13.8676 13.9894 14.0947 13.4413C14.3217 12.8932 14.1962 12.2623 13.7767 11.8428ZM8.00027 15.4431C7.39577 15.4431 6.904 14.9513 6.904 14.3468H9.09654C9.09654 14.9513 8.60478 15.4431 8.00027 15.4431ZM13.1182 13.0368C13.0545 13.1905 12.9059 13.2898 12.7395 13.2898H3.26104C3.09467 13.2898 2.94603 13.1905 2.88237 13.0368C2.8187 12.8831 2.85358 12.7078 2.97122 12.5902C4.13207 11.4293 4.77135 9.88588 4.77135 8.24422V6.98176C4.77135 5.20132 6.21984 3.75284 8.00027 3.75284C9.78071 3.75284 11.2292 5.20132 11.2292 6.98176V8.24422C11.2292 9.88588 11.8685 11.4293 13.0294 12.5902C13.147 12.7078 13.1818 12.8831 13.1182 13.0368Z" fill="#666666"/>
</g>
<defs>
<clipPath id="clip0_174_14463">
<rect width="16" height="16" fill="white" transform="translate(0 0.5)"/>
</clipPath>
</defs>
</svg>
