<svg width="16" height="17" viewBox="0 0 16 17" fill="none" xmlns="http://www.w3.org/2000/svg">
<path d="M4.3665 15.6663C5.11984 15.6663 5.91317 15.4863 6.73317 15.1397C7.53317 14.7997 8.33984 14.333 9.1265 13.7663C9.9065 13.193 10.6598 12.553 11.3732 11.853C12.0798 11.1397 12.7198 10.3863 13.2865 9.61301C13.8598 8.81301 14.3198 8.01301 14.6465 7.23967C14.9932 6.41301 15.1665 5.61301 15.1665 4.85967C15.1665 4.33967 15.0732 3.84634 14.8932 3.38634C14.7065 2.91301 14.4065 2.47301 13.9998 2.09301C13.4865 1.58634 12.8998 1.33301 12.2732 1.33301C12.0132 1.33301 11.7465 1.39301 11.5198 1.49967C11.2598 1.61967 11.0398 1.79967 10.8798 2.03967L9.33317 4.21967C9.19317 4.41301 9.0865 4.59967 9.01317 4.78634C8.9265 4.98634 8.87984 5.18634 8.87984 5.37967C8.87984 5.63301 8.95317 5.87967 9.09317 6.11301C9.19317 6.29301 9.3465 6.48634 9.53984 6.67968L9.99317 7.15301C9.9865 7.17301 9.97984 7.18634 9.97317 7.19967C9.89317 7.33967 9.73317 7.57967 9.4265 7.93967C9.09984 8.31301 8.79317 8.65301 8.4865 8.96634C8.09317 9.35301 7.7665 9.65967 7.45984 9.91301C7.07984 10.233 6.83317 10.393 6.6865 10.4663L6.69984 10.4997L6.21317 10.0197C6.0065 9.81301 5.8065 9.65967 5.61317 9.55968C5.2465 9.33301 4.77984 9.29301 4.31317 9.48634C4.13984 9.55967 3.95317 9.65967 3.75317 9.79967L1.53984 11.373C1.29317 11.5397 1.11317 11.753 1.0065 12.0063C0.906504 12.2597 0.859838 12.493 0.859838 12.7263C0.859838 13.0463 0.93317 13.3663 1.07317 13.6663C1.21317 13.9663 1.3865 14.2263 1.6065 14.4663C1.9865 14.8863 2.39984 15.1863 2.87984 15.3797C3.33984 15.5663 3.83984 15.6663 4.3665 15.6663ZM12.2732 2.33301C12.6398 2.33301 12.9798 2.49301 13.3065 2.81301C13.6132 3.09967 13.8265 3.41301 13.9598 3.75301C14.0998 4.09967 14.1665 4.46634 14.1665 4.85967C14.1665 5.47967 14.0198 6.15301 13.7265 6.84634C13.4265 7.55301 13.0065 8.28634 12.4732 9.01967C11.9398 9.75301 11.3332 10.4663 10.6665 11.1397C9.99984 11.7997 9.27984 12.413 8.53984 12.953C7.81984 13.4797 7.07984 13.9063 6.3465 14.213C5.2065 14.6997 4.13984 14.813 3.25984 14.4463C2.91984 14.3063 2.61984 14.093 2.3465 13.7863C2.19317 13.6197 2.07317 13.4397 1.97317 13.2263C1.89317 13.0597 1.85317 12.8863 1.85317 12.713C1.85317 12.6063 1.87317 12.4997 1.9265 12.3797C1.9465 12.3397 1.9865 12.2663 2.11317 12.1797L4.3265 10.6063C4.45984 10.513 4.57984 10.4463 4.69317 10.3997C4.83984 10.3397 4.89984 10.2797 5.1265 10.4197C5.25984 10.4863 5.37984 10.5863 5.51317 10.7197L6.01984 11.2197C6.27984 11.473 6.67984 11.533 6.9865 11.4197L7.1665 11.3397C7.43984 11.193 7.75984 10.9663 8.11317 10.6663C8.43317 10.393 8.77984 10.073 9.19984 9.65967C9.5265 9.32634 9.85317 8.97301 10.1932 8.57967C10.5065 8.21301 10.7332 7.89967 10.8732 7.63967L10.9532 7.43967C10.9932 7.28634 11.0065 7.19967 11.0065 7.10634C11.0065 6.86634 10.9198 6.65301 10.7532 6.48634L10.2532 5.96634C10.1198 5.83301 10.0198 5.70634 9.95317 5.59301C9.89984 5.50634 9.87984 5.43301 9.87984 5.36634C9.87984 5.31301 9.89984 5.23301 9.93317 5.15301C9.97984 5.04634 10.0532 4.92634 10.1465 4.79967L11.6932 2.61301C11.7598 2.51967 11.8398 2.45301 11.9398 2.40634C12.0465 2.35967 12.1598 2.33301 12.2732 2.33301ZM6.69984 10.5063L6.8065 10.9597L6.6265 10.493C6.65984 10.4863 6.6865 10.493 6.69984 10.5063Z" fill="#FFE7F4"/>
<path d="M3.66667 7.00033C3.94 7.00033 4.16667 6.77366 4.16667 6.50033C4.16667 6.26033 4.40667 5.76033 4.80667 5.33366C5.2 4.91366 5.63333 4.66699 6 4.66699C6.27333 4.66699 6.5 4.44033 6.5 4.16699C6.5 3.89366 6.27333 3.66699 6 3.66699C5.35333 3.66699 4.67333 4.01366 4.08 4.64699C3.52667 5.24033 3.16667 5.96699 3.16667 6.50033C3.16667 6.77366 3.39333 7.00033 3.66667 7.00033Z" fill="#FFE7F4"/>
<path d="M1.33333 6.99967C1.60667 6.99967 1.83333 6.77301 1.83333 6.49967C1.83333 4.19967 3.7 2.33301 6 2.33301C6.27333 2.33301 6.5 2.10634 6.5 1.83301C6.5 1.55967 6.27333 1.33301 6 1.33301C3.15333 1.33301 0.833333 3.65301 0.833333 6.49967C0.833333 6.77301 1.06 6.99967 1.33333 6.99967Z" fill="#FFE7F4"/>
</svg>
