<svg width="17" height="17" viewBox="0 0 17 17" fill="none" xmlns="http://www.w3.org/2000/svg">
<g clip-path="url(#clip0_60_22961)">
<path d="M13.9331 14.3882H3.06732C2.41704 14.3874 1.79364 14.1287 1.33386 13.6688C0.874086 13.2089 0.615472 12.5855 0.614746 11.9352V5.0639C0.615472 4.41366 0.8741 3.79026 1.33389 3.33047C1.79368 2.87068 2.41708 2.61205 3.06732 2.61133H13.9331C14.5834 2.61205 15.2069 2.87067 15.6667 3.33044C16.1266 3.79022 16.3853 4.41362 16.3862 5.0639V11.9352C16.3854 12.5856 16.1268 13.2091 15.6669 13.669C15.207 14.1288 14.5835 14.3875 13.9331 14.3882ZM3.06732 3.75419C2.72007 3.75455 2.38715 3.89265 2.14161 4.13819C1.89607 4.38373 1.75797 4.71665 1.7576 5.0639V11.9352C1.75785 12.2825 1.8959 12.6156 2.14145 12.8612C2.387 13.1069 2.71999 13.245 3.06732 13.2454H13.9331C14.2805 13.245 14.6136 13.1069 14.8592 12.8612C15.1048 12.6156 15.243 12.2826 15.2433 11.9352V5.0639C15.2428 4.71661 15.1046 4.38369 14.859 4.13816C14.6134 3.89264 14.2804 3.75455 13.9331 3.75419H3.06732Z" fill="#FFE7F4"/>
<path d="M8.49331 10.0382C8.01386 10.0429 7.54681 9.88586 7.1676 9.59245L1.05651 4.7225C0.937997 4.628 0.86188 4.49028 0.844906 4.33965C0.827931 4.18902 0.871489 4.03782 0.965997 3.9193C1.0605 3.80079 1.19822 3.72467 1.34885 3.7077C1.49948 3.69072 1.65068 3.73428 1.7692 3.82879L7.87845 8.69873C8.05893 8.82674 8.27485 8.89523 8.49611 8.89466C8.71737 8.89408 8.93293 8.82447 9.11274 8.69553L15.1466 3.83108C15.2645 3.73596 15.4153 3.69158 15.566 3.7077C15.7166 3.72382 15.8547 3.79911 15.9498 3.91702C16.0449 4.03493 16.0893 4.18579 16.0731 4.33642C16.057 4.48705 15.9817 4.6251 15.8638 4.72022L9.83182 9.58467C9.44999 9.88325 8.978 10.0432 8.49331 10.0382Z" fill="#FFE7F4"/>
</g>
<defs>
<clipPath id="clip0_60_22961">
<rect width="16" height="16" fill="white" transform="translate(0.5 0.5)"/>
</clipPath>
</defs>
</svg>
