<svg width="20" height="20" viewBox="0 0 20 20" fill="none" xmlns="http://www.w3.org/2000/svg">
<path d="M6.0415 6.66797C6.0415 6.32279 6.32133 6.04297 6.6665 6.04297H9.99984C10.345 6.04297 10.6248 6.32279 10.6248 6.66797C10.6248 7.01314 10.345 7.29297 9.99984 7.29297H6.6665C6.32133 7.29297 6.0415 7.01314 6.0415 6.66797Z" fill="#666666"/>
<path d="M6.0415 10C6.0415 9.65483 6.32133 9.375 6.6665 9.375H13.3332C13.6783 9.375 13.9582 9.65483 13.9582 10C13.9582 10.3452 13.6783 10.625 13.3332 10.625H6.6665C6.32133 10.625 6.0415 10.3452 6.0415 10Z" fill="#666666"/>
<path fill-rule="evenodd" clip-rule="evenodd" d="M8.3052 1.04297H11.6945C12.8376 1.04297 13.7338 1.04296 14.4541 1.10181C15.1875 1.16174 15.7934 1.28579 16.3418 1.56523C17.2435 2.02462 17.9765 2.75765 18.4359 3.65926C18.7153 4.20771 18.8394 4.81363 18.8993 5.54709C18.9582 6.26737 18.9582 7.16356 18.9582 8.30665V9.32147V9.44389C18.9583 10.7344 18.9585 11.5216 18.7646 12.1829C18.3054 13.7489 17.0808 14.9736 15.5148 15.4327C14.8535 15.6266 14.0663 15.6265 12.7758 15.6263C12.7354 15.6263 12.6947 15.6263 12.6533 15.6263H12.196L12.1458 15.6264C11.4231 15.631 10.7192 15.8566 10.1284 16.2729L10.0874 16.3021L7.91185 17.8561C6.65809 18.7516 5.01057 17.4583 5.58279 16.0277C5.6597 15.8355 5.5181 15.6263 5.31101 15.6263H4.80955C2.72851 15.6263 1.0415 13.9393 1.0415 11.8582V8.30667C1.0415 7.16357 1.0415 6.26738 1.10035 5.54709C1.16027 4.81363 1.28432 4.20771 1.56376 3.65926C2.02315 2.75765 2.75619 2.02462 3.6578 1.56523C4.20625 1.28579 4.81216 1.16174 5.54562 1.10181C6.26591 1.04296 7.1621 1.04297 8.3052 1.04297ZM5.6474 2.34766C4.99125 2.40127 4.56815 2.50429 4.22529 2.67899C3.55888 3.01854 3.01707 3.56034 2.67752 4.22675C2.50283 4.56961 2.3998 4.99272 2.3462 5.64887C2.29199 6.31232 2.2915 7.15754 2.2915 8.33464V11.8582C2.2915 13.249 3.41887 14.3763 4.80955 14.3763H5.31101C6.40243 14.3763 7.14873 15.4786 6.74339 16.492C6.63481 16.7634 6.94741 17.0088 7.1853 16.8389L9.40834 15.2511C10.2076 14.6879 11.16 14.3826 12.1378 14.3764L12.196 14.3763H12.6533C14.1049 14.3763 14.6968 14.37 15.163 14.2332C16.3205 13.8938 17.2257 12.9886 17.5651 11.8311C17.7018 11.3649 17.7082 10.7731 17.7082 9.32147V8.33464C17.7082 7.15754 17.7077 6.31232 17.6535 5.64887C17.5998 4.99272 17.4968 4.56961 17.3222 4.22675C16.9826 3.56034 16.4408 3.01854 15.7744 2.67899C15.4315 2.50429 15.0084 2.40127 14.3523 2.34766C13.6888 2.29345 12.8436 2.29297 11.6665 2.29297H8.33317C7.15608 2.29297 6.31085 2.29345 5.6474 2.34766Z" fill="#666666"/>
</svg>
