<svg width="40" height="36" viewBox="0 0 40 36" fill="none" xmlns="http://www.w3.org/2000/svg">
<path d="M35.3127 0.726562H10.9377C8.35306 0.726562 6.25024 2.82938 6.25024 5.41406C6.25024 6.27703 6.94978 6.97656 7.81274 6.97656C8.67571 6.97656 9.37524 6.27703 9.37524 5.41406C9.37524 4.5525 10.0762 3.85156 10.9377 3.85156H35.3127C36.1743 3.85156 36.8752 4.5525 36.8752 5.41406V21.0391C36.8752 21.9006 36.1743 22.6016 35.3127 22.6016H33.7502V14.7891C33.7502 12.2044 31.6474 10.1016 29.0627 10.1016H4.68774C2.10306 10.1016 0.000244141 12.2044 0.000244141 14.7891V30.4141C0.000244141 32.9987 2.10306 35.1016 4.68774 35.1016H29.0627C31.6474 35.1016 33.7502 32.9987 33.7502 30.4141V25.7266H35.3127C37.8974 25.7266 40.0002 23.6238 40.0002 21.0391V5.41406C40.0002 2.82938 37.8974 0.726562 35.3127 0.726562ZM30.6252 30.4141C30.6252 31.2756 29.9243 31.9766 29.0627 31.9766H4.68774C3.82618 31.9766 3.12524 31.2756 3.12524 30.4141V14.7891C3.12524 13.9275 3.82618 13.2266 4.68774 13.2266H29.0627C29.9243 13.2266 30.6252 13.9275 30.6252 14.7891V16.3516H7.81274C6.94978 16.3516 6.25024 17.0511 6.25024 17.9141C6.25024 18.777 6.94978 19.4766 7.81274 19.4766H30.6252V30.4141Z" fill="#B02770"/>
<path d="M25.9377 28.8516H19.6877C18.8248 28.8516 18.1252 28.152 18.1252 27.2891C18.1252 26.4261 18.8248 25.7266 19.6877 25.7266H25.9377C26.8007 25.7266 27.5002 26.4261 27.5002 27.2891C27.5002 28.152 26.8007 28.8516 25.9377 28.8516Z" fill="#B02770"/>
</svg>
