<svg width="35" height="35" viewBox="0 0 35 35" fill="none" xmlns="http://www.w3.org/2000/svg">
<rect x="0.5" y="0.5" width="34" height="34" rx="17" fill="#F8F8F8"/>
<rect x="0.5" y="0.5" width="34" height="34" rx="17" stroke="#EEEEEE"/>
<path d="M22.5902 13.8643C22.3973 13.8643 22.2123 13.9409 22.0759 14.0773C21.9396 14.2136 21.8629 14.3986 21.8629 14.5915V22.7296C21.8421 23.0973 21.6767 23.4419 21.403 23.6883C21.1292 23.9347 20.7691 24.063 20.4012 24.0451H14.5979C14.2299 24.063 13.8699 23.9347 13.5961 23.6883C13.3223 23.4419 13.157 23.0973 13.1361 22.7296V14.5915C13.1361 14.3986 13.0595 14.2136 12.9231 14.0773C12.7867 13.9409 12.6018 13.8643 12.4089 13.8643C12.216 13.8643 12.031 13.9409 11.8946 14.0773C11.7583 14.2136 11.6816 14.3986 11.6816 14.5915V22.7296C11.7024 23.4832 12.021 24.1978 12.5675 24.7169C13.1141 25.2361 13.8442 25.5175 14.5979 25.4995H20.4012C21.1548 25.5175 21.8849 25.2361 22.4315 24.7169C22.9781 24.1978 23.2966 23.4832 23.3174 22.7296V14.5915C23.3174 14.3986 23.2408 14.2136 23.1044 14.0773C22.968 13.9409 22.783 13.8643 22.5902 13.8643Z" fill="#F55157" stroke="#F8F8F8" stroke-width="0.3"/>
<path d="M23.3181 11.6816H20.4091V10.2272C20.4091 10.0343 20.3325 9.84937 20.1961 9.71299C20.0597 9.57662 19.8748 9.5 19.6819 9.5H15.3185C15.1256 9.5 14.9406 9.57662 14.8043 9.71299C14.6679 9.84937 14.5913 10.0343 14.5913 10.2272V11.6816H11.6823C11.4894 11.6816 11.3045 11.7582 11.1681 11.8946C11.0317 12.031 10.9551 12.216 10.9551 12.4088C10.9551 12.6017 11.0317 12.7867 11.1681 12.923C11.3045 13.0594 11.4894 13.136 11.6823 13.136H23.3181C23.511 13.136 23.6959 13.0594 23.8323 12.923C23.9687 12.7867 24.0453 12.6017 24.0453 12.4088C24.0453 12.216 23.9687 12.031 23.8323 11.8946C23.6959 11.7582 23.511 11.6816 23.3181 11.6816ZM16.0457 11.6816V10.9544H18.9547V11.6816H16.0457Z" fill="#F55157" stroke="#F8F8F8" stroke-width="0.3"/>
<path d="M16.7728 21.136V16.0456C16.7728 15.8527 16.6962 15.6677 16.5598 15.5314C16.4234 15.395 16.2385 15.3184 16.0456 15.3184C15.8527 15.3184 15.6677 15.395 15.5314 15.5314C15.395 15.6677 15.3184 15.8527 15.3184 16.0456V21.136C15.3184 21.3289 15.395 21.5138 15.5314 21.6502C15.6677 21.7866 15.8527 21.8632 16.0456 21.8632C16.2385 21.8632 16.4234 21.7866 16.5598 21.6502C16.6962 21.5138 16.7728 21.3289 16.7728 21.136Z" fill="#F55157" stroke="#F8F8F8" stroke-width="0.3"/>
<path d="M19.681 21.136V16.0456C19.681 15.8527 19.6044 15.6677 19.468 15.5314C19.3316 15.395 19.1467 15.3184 18.9538 15.3184C18.7609 15.3184 18.5759 15.395 18.4396 15.5314C18.3032 15.6677 18.2266 15.8527 18.2266 16.0456V21.136C18.2266 21.3289 18.3032 21.5138 18.4396 21.6502C18.5759 21.7866 18.7609 21.8632 18.9538 21.8632C19.1467 21.8632 19.3316 21.7866 19.468 21.6502C19.6044 21.5138 19.681 21.3289 19.681 21.136Z" fill="#F55157" stroke="#F8F8F8" stroke-width="0.3"/>
</svg>
