<svg width="41" height="41" viewBox="0 0 41 41" fill="none" xmlns="http://www.w3.org/2000/svg">
<g clip-path="url(#clip0_258_17386)">
<path d="M30.8767 24.6953C28.0965 24.6953 25.8347 26.9571 25.8347 29.7373C25.8347 32.5176 28.0965 34.7794 30.8767 34.7794C33.6575 34.7794 35.9188 32.5176 35.9188 29.7373C35.9188 26.9571 33.657 24.6953 30.8767 24.6953ZM30.8767 32.2584C29.4864 32.2584 28.3557 31.1277 28.3557 29.7373C28.3557 28.347 29.4864 27.2163 30.8767 27.2163C32.2671 27.2163 33.3978 28.347 33.3978 29.7373C33.3978 31.1277 32.2671 32.2584 30.8767 32.2584Z" fill="#B02770"/>
<path d="M13.6499 24.6953C10.8697 24.6953 8.60791 26.9571 8.60791 29.7373C8.60791 32.5176 10.8697 34.7794 13.6499 34.7794C16.4302 34.7794 18.692 32.5176 18.692 29.7373C18.692 26.9571 16.4302 24.6953 13.6499 24.6953ZM13.6499 32.2584C12.2596 32.2584 11.1289 31.1277 11.1289 29.7373C11.1289 28.347 12.2596 27.2163 13.6499 27.2163C15.0399 27.2163 16.171 28.347 16.171 29.7373C16.171 31.1277 15.0403 32.2584 13.6499 32.2584Z" fill="#B02770"/>
<path d="M34.2717 10.2635C34.0574 9.83785 33.6217 9.56934 33.1453 9.56934H26.5066V12.0904H32.3679L35.8003 18.9172L38.0532 17.7844L34.2717 10.2635Z" fill="#B02770"/>
<path d="M27.0954 28.5195H17.5576V31.0405H27.0954V28.5195Z" fill="#B02770"/>
<path d="M9.86722 28.5195H5.49753C4.80128 28.5195 4.23706 29.0838 4.23706 29.78C4.23706 30.4763 4.80136 31.0405 5.49753 31.0405H9.86729C10.5635 31.0405 11.1278 30.4762 11.1278 29.78C11.1278 29.0838 10.5635 28.5195 9.86722 28.5195Z" fill="#B02770"/>
<path d="M40.4009 20.8135L37.9215 17.6202C37.6833 17.3127 37.3157 17.1328 36.9261 17.1328H27.7664V8.3093C27.7664 7.61305 27.2021 7.04883 26.506 7.04883H5.49753C4.80128 7.04883 4.23706 7.61312 4.23706 8.3093C4.23706 9.00547 4.80136 9.56977 5.49753 9.56977H25.2454V18.3933C25.2454 19.0895 25.8097 19.6537 26.5059 19.6537H36.3089L38.1446 22.0184V28.5193H34.6571C33.9609 28.5193 33.3967 29.0836 33.3967 29.7798C33.3967 30.476 33.961 31.0402 34.6571 31.0402H39.405C40.1013 31.0402 40.6655 30.4759 40.6656 29.7798V21.5866C40.6656 21.3068 40.5723 21.0345 40.4009 20.8135Z" fill="#B02770"/>
<path d="M9.78441 22.1328H3.98605C3.2898 22.1328 2.72559 22.6971 2.72559 23.3933C2.72559 24.0895 3.28988 24.6538 3.98605 24.6538H9.78434C10.4806 24.6538 11.0448 24.0895 11.0448 23.3933C11.0449 22.6971 10.4806 22.1328 9.78441 22.1328Z" fill="#B02770"/>
<path d="M12.6835 17.1748H1.92722C1.23104 17.1748 0.666748 17.7391 0.666748 18.4354C0.666748 19.1316 1.23104 19.6958 1.92722 19.6958H12.6835C13.3798 19.6958 13.944 19.1315 13.944 18.4354C13.944 17.7392 13.3798 17.1748 12.6835 17.1748Z" fill="#B02770"/>
<path d="M14.7424 12.2168H3.98605C3.2898 12.2168 2.72559 12.7811 2.72559 13.4773C2.72559 14.1735 3.28988 14.7377 3.98605 14.7377H14.7424C15.4386 14.7377 16.0029 14.1734 16.0029 13.4773C16.0029 12.7811 15.4386 12.2168 14.7424 12.2168Z" fill="#B02770"/>
</g>
<defs>
<clipPath id="clip0_258_17386">
<rect width="40" height="40" fill="white" transform="translate(0.666748 0.914062)"/>
</clipPath>
</defs>
</svg>
