<svg width="20" height="20" viewBox="0 0 20 20" fill="none" xmlns="http://www.w3.org/2000/svg">
<path d="M14.1669 17.2919C13.5489 17.2919 12.9447 17.1087 12.4308 16.7653C11.9169 16.4219 11.5163 15.9339 11.2798 15.3628C11.0433 14.7918 10.9814 14.1635 11.102 13.5573C11.2226 12.9511 11.5202 12.3943 11.9572 11.9572C12.3943 11.5202 12.9511 11.2226 13.5573 11.102C14.1635 10.9814 14.7918 11.0433 15.3628 11.2798C15.9339 11.5163 16.4219 11.9169 16.7653 12.4308C17.1087 12.9447 17.2919 13.5489 17.2919 14.1669C17.2908 14.9954 16.9612 15.7896 16.3754 16.3754C15.7896 16.9612 14.9954 17.2908 14.1669 17.2919ZM14.1669 12.2919C13.7961 12.2919 13.4336 12.4019 13.1253 12.6079C12.8169 12.814 12.5766 13.1068 12.4347 13.4494C12.2928 13.792 12.2556 14.169 12.328 14.5327C12.4003 14.8965 12.5789 15.2305 12.8411 15.4928C13.1033 15.755 13.4374 15.9336 13.8012 16.0059C14.1649 16.0783 14.5419 16.0411 14.8845 15.8992C15.2271 15.7573 15.5199 15.517 15.726 15.2086C15.932 14.9003 16.0419 14.5378 16.0419 14.1669C16.0413 13.6699 15.8435 13.1933 15.492 12.8419C15.1406 12.4904 14.664 12.2926 14.1669 12.2919ZM15.4169 8.95861H12.9169C12.6649 8.98212 12.4107 8.94977 12.1725 8.86385C11.9343 8.77794 11.718 8.64058 11.539 8.46155C11.36 8.28252 11.2226 8.06622 11.1367 7.82805C11.0508 7.58989 11.0184 7.33571 11.0419 7.08361V4.58361C11.0184 4.33152 11.0508 4.07734 11.1367 3.83918C11.2226 3.60101 11.36 3.38471 11.539 3.20568C11.718 3.02665 11.9343 2.88929 12.1725 2.80337C12.4107 2.71746 12.6649 2.6851 12.9169 2.70861H15.4169C15.669 2.6851 15.9232 2.71746 16.1614 2.80337C16.3996 2.88929 16.6158 3.02665 16.7949 3.20568C16.9739 3.38471 17.1113 3.60101 17.1972 3.83918C17.2831 4.07734 17.3155 4.33152 17.2919 4.58361V7.08361C17.3155 7.33571 17.2831 7.58989 17.1972 7.82805C17.1113 8.06622 16.9739 8.28252 16.7949 8.46155C16.6158 8.64058 16.3996 8.77794 16.1614 8.86385C15.9232 8.94977 15.669 8.98212 15.4169 8.95861ZM12.9169 3.95861C12.4261 3.95861 12.2919 4.09278 12.2919 4.58361V7.08361C12.2919 7.57445 12.4261 7.70861 12.9169 7.70861H15.4169C15.9078 7.70861 16.0419 7.57445 16.0419 7.08361V4.58361C16.0419 4.09278 15.9078 3.95861 15.4169 3.95861H12.9169ZM7.08361 8.95861H4.58361C4.33152 8.98212 4.07734 8.94977 3.83918 8.86385C3.60101 8.77794 3.38471 8.64058 3.20568 8.46155C3.02665 8.28252 2.88929 8.06622 2.80337 7.82805C2.71746 7.58989 2.6851 7.33571 2.70861 7.08361V4.58361C2.6851 4.33152 2.71746 4.07734 2.80337 3.83918C2.88929 3.60101 3.02665 3.38471 3.20568 3.20568C3.38471 3.02665 3.60101 2.88929 3.83918 2.80337C4.07734 2.71746 4.33152 2.6851 4.58361 2.70861H7.08361C7.33571 2.6851 7.58989 2.71746 7.82805 2.80337C8.06622 2.88929 8.28252 3.02665 8.46155 3.20568C8.64058 3.38471 8.77794 3.60101 8.86385 3.83918C8.94977 4.07734 8.98212 4.33152 8.95861 4.58361V7.08361C8.98212 7.33571 8.94977 7.58989 8.86385 7.82805C8.77794 8.06622 8.64058 8.28252 8.46155 8.46155C8.28252 8.64058 8.06622 8.77794 7.82805 8.86385C7.58989 8.94977 7.33571 8.98212 7.08361 8.95861ZM4.58361 3.95861C4.09278 3.95861 3.95861 4.09278 3.95861 4.58361V7.08361C3.95861 7.57445 4.09278 7.70861 4.58361 7.70861H7.08361C7.57445 7.70861 7.70861 7.57445 7.70861 7.08361V4.58361C7.70861 4.09278 7.57445 3.95861 7.08361 3.95861H4.58361ZM7.08361 17.2919H4.58361C4.33152 17.3155 4.07734 17.2831 3.83918 17.1972C3.60101 17.1113 3.38471 16.9739 3.20568 16.7949C3.02665 16.6158 2.88929 16.3996 2.80337 16.1614C2.71746 15.9232 2.6851 15.669 2.70861 15.4169V12.9169C2.6851 12.6649 2.71746 12.4107 2.80337 12.1725C2.88929 11.9343 3.02665 11.718 3.20568 11.539C3.38471 11.36 3.60101 11.2226 3.83918 11.1367C4.07734 11.0508 4.33152 11.0184 4.58361 11.0419H7.08361C7.33571 11.0184 7.58989 11.0508 7.82805 11.1367C8.06622 11.2226 8.28252 11.36 8.46155 11.539C8.64058 11.718 8.77794 11.9343 8.86385 12.1725C8.94977 12.4107 8.98212 12.6649 8.95861 12.9169V15.4169C8.98212 15.669 8.94977 15.9232 8.86385 16.1614C8.77794 16.3996 8.64058 16.6158 8.46155 16.7949C8.28252 16.9739 8.06622 17.1113 7.82805 17.1972C7.58989 17.2831 7.33571 17.3155 7.08361 17.2919ZM4.58361 12.2919C4.09278 12.2919 3.95861 12.4261 3.95861 12.9169V15.4169C3.95861 15.9078 4.09278 16.0419 4.58361 16.0419H7.08361C7.57445 16.0419 7.70861 15.9078 7.70861 15.4169V12.9169C7.70861 12.4261 7.57445 12.2919 7.08361 12.2919H4.58361Z" fill="#B02770"/>
</svg>
