<svg width="20" height="20" viewBox="0 0 20 20" fill="none" xmlns="http://www.w3.org/2000/svg">
<path d="M14.1667 17.2919C13.5486 17.2919 12.9444 17.1087 12.4305 16.7653C11.9166 16.4219 11.5161 15.9339 11.2796 15.3628C11.0431 14.7918 10.9812 14.1635 11.1017 13.5573C11.2223 12.9511 11.52 12.3943 11.957 11.9572C12.394 11.5202 12.9509 11.2226 13.557 11.102C14.1632 10.9814 14.7916 11.0433 15.3626 11.2798C15.9336 11.5163 16.4217 11.9169 16.765 12.4308C17.1084 12.9447 17.2917 13.5489 17.2917 14.1669C17.2906 14.9954 16.961 15.7896 16.3752 16.3754C15.7894 16.9612 14.9952 17.2908 14.1667 17.2919ZM14.1667 12.2919C13.7959 12.2919 13.4334 12.4019 13.125 12.6079C12.8167 12.814 12.5763 13.1068 12.4344 13.4494C12.2925 13.792 12.2554 14.169 12.3277 14.5327C12.4001 14.8965 12.5787 15.2305 12.8409 15.4928C13.1031 15.755 13.4372 15.9336 13.8009 16.0059C14.1646 16.0783 14.5416 16.0411 14.8842 15.8992C15.2268 15.7573 15.5197 15.517 15.7257 15.2086C15.9317 14.9003 16.0417 14.5378 16.0417 14.1669C16.041 13.6699 15.8433 13.1933 15.4918 12.8419C15.1403 12.4904 14.6638 12.2926 14.1667 12.2919ZM15.4167 8.95861H12.9167C12.6646 8.98212 12.4104 8.94977 12.1723 8.86385C11.9341 8.77794 11.7178 8.64058 11.5388 8.46155C11.3597 8.28252 11.2224 8.06622 11.1365 7.82805C11.0505 7.58989 11.0182 7.33571 11.0417 7.08361V4.58361C11.0182 4.33152 11.0505 4.07734 11.1365 3.83918C11.2224 3.60101 11.3597 3.38471 11.5388 3.20568C11.7178 3.02665 11.9341 2.88929 12.1723 2.80337C12.4104 2.71746 12.6646 2.6851 12.9167 2.70861H15.4167C15.6688 2.6851 15.923 2.71746 16.1611 2.80337C16.3993 2.88929 16.6156 3.02665 16.7946 3.20568C16.9737 3.38471 17.111 3.60101 17.1969 3.83918C17.2829 4.07734 17.3152 4.33152 17.2917 4.58361V7.08361C17.3152 7.33571 17.2829 7.58989 17.1969 7.82805C17.111 8.06622 16.9737 8.28252 16.7946 8.46155C16.6156 8.64058 16.3993 8.77794 16.1611 8.86385C15.923 8.94977 15.6688 8.98212 15.4167 8.95861ZM12.9167 3.95861C12.4259 3.95861 12.2917 4.09278 12.2917 4.58361V7.08361C12.2917 7.57445 12.4259 7.70861 12.9167 7.70861H15.4167C15.9075 7.70861 16.0417 7.57445 16.0417 7.08361V4.58361C16.0417 4.09278 15.9075 3.95861 15.4167 3.95861H12.9167ZM7.08337 8.95861H4.58337C4.33128 8.98212 4.0771 8.94977 3.83893 8.86385C3.60077 8.77794 3.38447 8.64058 3.20544 8.46155C3.02641 8.28252 2.88904 8.06622 2.80313 7.82805C2.71721 7.58989 2.68486 7.33571 2.70837 7.08361V4.58361C2.68486 4.33152 2.71721 4.07734 2.80313 3.83918C2.88904 3.60101 3.02641 3.38471 3.20544 3.20568C3.38447 3.02665 3.60077 2.88929 3.83893 2.80337C4.0771 2.71746 4.33128 2.6851 4.58337 2.70861H7.08337C7.33546 2.6851 7.58964 2.71746 7.82781 2.80337C8.06597 2.88929 8.28227 3.02665 8.4613 3.20568C8.64033 3.38471 8.7777 3.60101 8.86361 3.83918C8.94953 4.07734 8.98188 4.33152 8.95837 4.58361V7.08361C8.98188 7.33571 8.94953 7.58989 8.86361 7.82805C8.7777 8.06622 8.64033 8.28252 8.4613 8.46155C8.28227 8.64058 8.06597 8.77794 7.82781 8.86385C7.58964 8.94977 7.33546 8.98212 7.08337 8.95861ZM4.58337 3.95861C4.09254 3.95861 3.95837 4.09278 3.95837 4.58361V7.08361C3.95837 7.57445 4.09254 7.70861 4.58337 7.70861H7.08337C7.5742 7.70861 7.70837 7.57445 7.70837 7.08361V4.58361C7.70837 4.09278 7.5742 3.95861 7.08337 3.95861H4.58337ZM7.08337 17.2919H4.58337C4.33128 17.3155 4.0771 17.2831 3.83893 17.1972C3.60077 17.1113 3.38447 16.9739 3.20544 16.7949C3.02641 16.6158 2.88904 16.3996 2.80313 16.1614C2.71721 15.9232 2.68486 15.669 2.70837 15.4169V12.9169C2.68486 12.6649 2.71721 12.4107 2.80313 12.1725C2.88904 11.9343 3.02641 11.718 3.20544 11.539C3.38447 11.36 3.60077 11.2226 3.83893 11.1367C4.0771 11.0508 4.33128 11.0184 4.58337 11.0419H7.08337C7.33546 11.0184 7.58964 11.0508 7.82781 11.1367C8.06597 11.2226 8.28227 11.36 8.4613 11.539C8.64033 11.718 8.7777 11.9343 8.86361 12.1725C8.94953 12.4107 8.98188 12.6649 8.95837 12.9169V15.4169C8.98188 15.669 8.94953 15.9232 8.86361 16.1614C8.7777 16.3996 8.64033 16.6158 8.4613 16.7949C8.28227 16.9739 8.06597 17.1113 7.82781 17.1972C7.58964 17.2831 7.33546 17.3155 7.08337 17.2919ZM4.58337 12.2919C4.09254 12.2919 3.95837 12.4261 3.95837 12.9169V15.4169C3.95837 15.9078 4.09254 16.0419 4.58337 16.0419H7.08337C7.5742 16.0419 7.70837 15.9078 7.70837 15.4169V12.9169C7.70837 12.4261 7.5742 12.2919 7.08337 12.2919H4.58337Z" fill="#A5A5A5"/>
</svg>
