<svg width="35" height="35" viewBox="0 0 35 35" fill="none" xmlns="http://www.w3.org/2000/svg">
<rect x="0.5" y="0.5" width="34" height="34" rx="17" fill="#F8F8F8"/>
<rect x="0.5" y="0.5" width="34" height="34" rx="17" stroke="#EEEEEE"/>
<path d="M21.936 19.8563C21.5062 19.8563 21.1588 20.2096 21.1588 20.6467V23.1296C21.1588 23.5659 20.8106 23.92 20.3816 23.92H11.8317C11.4027 23.92 11.0545 23.5659 11.0545 23.1296V12.8537C11.0545 12.4174 11.4027 12.0633 11.8317 12.0633H16.3476C16.7774 12.0633 17.1248 11.71 17.1248 11.2729C17.1248 10.8358 16.7774 10.4824 16.3476 10.4824H11.8317C10.5462 10.4824 9.5 11.5463 9.5 12.8537V23.1296C9.5 24.437 10.5462 25.5009 11.8317 25.5009H20.3815C21.6671 25.5009 22.7132 24.4377 22.7132 23.1296V20.6468C22.7133 20.2096 22.3658 19.8563 21.936 19.8563Z" fill="#666666" stroke="#F8F8F8" stroke-width="0.3"/>
<path d="M24.6304 10.3787C24.0661 9.80489 23.3292 9.51556 22.587 9.49977C21.8058 9.48238 21.02 9.77009 20.4293 10.3716L15.1673 15.723C14.3994 16.5071 13.9766 17.5473 13.9766 18.6524V20.423C13.9766 20.8601 14.324 21.2134 14.7538 21.2134H16.4948C17.5814 21.2134 18.6043 20.7834 19.3761 20.0016L24.6311 14.6574C25.7892 13.4789 25.7892 11.5581 24.6304 10.3787ZM18.2779 18.8832C17.8014 19.3662 17.1672 19.6326 16.4949 19.6326H15.5311V18.6524C15.5311 17.9686 15.793 17.3236 16.2671 16.8399L19.736 13.3121L21.746 15.3562L18.2779 18.8832ZM23.5313 13.5405L22.845 14.2385L20.835 12.1944L21.5213 11.4965C22.0763 10.9321 22.9779 10.9337 23.5313 11.4965C24.0847 12.06 24.0847 12.9769 23.5313 13.5405Z" fill="#666666" stroke="#F8F8F8" stroke-width="0.3"/>
</svg>
