<svg width="16" height="17" viewBox="0 0 16 17" fill="none" xmlns="http://www.w3.org/2000/svg">
<path d="M1 14.5C1 14.8978 1.15804 15.2794 1.43934 15.5607C1.72064 15.842 2.10218 16 2.5 16H5C5.13261 16 5.25979 15.9473 5.35355 15.8536C5.44732 15.7598 5.5 15.6326 5.5 15.5C5.5 15.3674 5.44732 15.2402 5.35355 15.1464C5.25979 15.0527 5.13261 15 5 15H2.5C2.36739 15 2.24021 14.9473 2.14645 14.8536C2.05268 14.7598 2 14.6326 2 14.5V3.5C2 3.36739 2.05268 3.24021 2.14645 3.14645C2.24021 3.05268 2.36739 3 2.5 3H3.5V3.5C3.5 3.63261 3.55268 3.75979 3.64645 3.85355C3.74021 3.94732 3.86739 4 4 4C4.13261 4 4.25979 3.94732 4.35355 3.85355C4.44732 3.75979 4.5 3.63261 4.5 3.5V3H6.5V3.5C6.5 3.63261 6.55268 3.75979 6.64645 3.85355C6.74021 3.94732 6.86739 4 7 4C7.13261 4 7.25979 3.94732 7.35355 3.85355C7.44732 3.75979 7.5 3.63261 7.5 3.5V3H9.5V3.5C9.5 3.63261 9.55268 3.75979 9.64645 3.85355C9.74021 3.94732 9.86739 4 10 4C10.1326 4 10.2598 3.94732 10.3536 3.85355C10.4473 3.75979 10.5 3.63261 10.5 3.5V3H11.5C11.6326 3 11.7598 3.05268 11.8536 3.14645C11.9473 3.24021 12 3.36739 12 3.5V6.5C12 6.63261 12.0527 6.75979 12.1464 6.85355C12.2402 6.94732 12.3674 7 12.5 7C12.6326 7 12.7598 6.94732 12.8536 6.85355C12.9473 6.75979 13 6.63261 13 6.5V3.5C13 3.10218 12.842 2.72064 12.5607 2.43934C12.2794 2.15804 11.8978 2 11.5 2H10.5V1.5C10.5 1.36739 10.4473 1.24021 10.3536 1.14645C10.2598 1.05268 10.1326 1 10 1C9.86739 1 9.74021 1.05268 9.64645 1.14645C9.55268 1.24021 9.5 1.36739 9.5 1.5V2H7.5V1.5C7.5 1.36739 7.44732 1.24021 7.35355 1.14645C7.25979 1.05268 7.13261 1 7 1C6.86739 1 6.74021 1.05268 6.64645 1.14645C6.55268 1.24021 6.5 1.36739 6.5 1.5V2H4.5V1.5C4.5 1.36739 4.44732 1.24021 4.35355 1.14645C4.25979 1.05268 4.13261 1 4 1C3.86739 1 3.74021 1.05268 3.64645 1.14645C3.55268 1.24021 3.5 1.36739 3.5 1.5V2H2.5C2.10218 2 1.72064 2.15804 1.43934 2.43934C1.15804 2.72064 1 3.10218 1 3.5V14.5Z" fill="white"/>
<path d="M4 6.5H10C10.1326 6.5 10.2598 6.44732 10.3536 6.35355C10.4473 6.25979 10.5 6.13261 10.5 6C10.5 5.86739 10.4473 5.74021 10.3536 5.64645C10.2598 5.55268 10.1326 5.5 10 5.5H4C3.86739 5.5 3.74021 5.55268 3.64645 5.64645C3.55268 5.74021 3.5 5.86739 3.5 6C3.5 6.13261 3.55268 6.25979 3.64645 6.35355C3.74021 6.44732 3.86739 6.5 4 6.5ZM4 8.5H9C9.13261 8.5 9.25979 8.44732 9.35355 8.35355C9.44732 8.25979 9.5 8.13261 9.5 8C9.5 7.86739 9.44732 7.74021 9.35355 7.64645C9.25979 7.55268 9.13261 7.5 9 7.5H4C3.86739 7.5 3.74021 7.55268 3.64645 7.64645C3.55268 7.74021 3.5 7.86739 3.5 8C3.5 8.13261 3.55268 8.25979 3.64645 8.35355C3.74021 8.44732 3.86739 8.5 4 8.5ZM8 10C8 9.86739 7.94732 9.74021 7.85355 9.64645C7.75978 9.55268 7.63261 9.5 7.5 9.5H4C3.86739 9.5 3.74021 9.55268 3.64645 9.64645C3.55268 9.74021 3.5 9.86739 3.5 10C3.5 10.1326 3.55268 10.2598 3.64645 10.3536C3.74021 10.4473 3.86739 10.5 4 10.5H7.5C7.63261 10.5 7.75978 10.4473 7.85355 10.3536C7.94732 10.2598 8 10.1326 8 10ZM4 11.5C3.86739 11.5 3.74021 11.5527 3.64645 11.6464C3.55268 11.7402 3.5 11.8674 3.5 12C3.5 12.1326 3.55268 12.2598 3.64645 12.3536C3.74021 12.4473 3.86739 12.5 4 12.5H6C6.13261 12.5 6.25978 12.4473 6.35355 12.3536C6.44732 12.2598 6.5 12.1326 6.5 12C6.5 11.8674 6.44732 11.7402 6.35355 11.6464C6.25978 11.5527 6.13261 11.5 6 11.5H4ZM7 16C7.03869 16.0011 7.07736 15.997 7.115 15.988L8.97 15.55C9.06037 15.5288 9.14299 15.4828 9.2085 15.417L14.5845 10.0385C14.8577 9.7556 15.0089 9.37669 15.0055 8.9834C15.0021 8.5901 14.8443 8.21388 14.5662 7.93577C14.2881 7.65766 13.9119 7.49991 13.5186 7.49649C13.1253 7.49307 12.7464 7.64426 12.4635 7.9175L7.0875 13.2935C7.02198 13.359 6.97593 13.4414 6.9545 13.5315L6.5155 15.385C6.49916 15.4582 6.49931 15.534 6.51595 15.6071C6.53258 15.6802 6.56528 15.7487 6.61167 15.8076C6.65806 15.8665 6.71698 15.9143 6.78414 15.9476C6.85131 15.9808 6.92505 15.9988 7 16ZM7.8925 13.9L13.1705 8.6245C13.2672 8.54717 13.3889 8.5082 13.5125 8.51504C13.6361 8.52189 13.7529 8.57407 13.8404 8.6616C13.9279 8.74913 13.9801 8.86586 13.987 8.98946C13.9938 9.11306 13.9548 9.23484 13.8775 9.3315L8.6 14.6075L7.674 14.8265L7.8925 13.9Z" fill="white"/>
</svg>
