<svg width="32" height="33" viewBox="0 0 32 33" fill="none" xmlns="http://www.w3.org/2000/svg">
<path d="M26.866 28.1915H5.13439C3.83383 28.1898 2.58703 27.6724 1.66748 26.7526C0.747927 25.8329 0.2307 24.586 0.229248 23.2855V9.54284C0.2307 8.24236 0.747957 6.99556 1.66753 6.07598C2.58711 5.1564 3.83391 4.63915 5.13439 4.6377H26.866C28.1666 4.63915 29.4135 5.15637 30.3332 6.07593C31.253 6.99548 31.7704 8.24228 31.7721 9.54284V23.2855C31.7707 24.5862 31.2533 25.8332 30.3336 26.753C29.4138 27.6727 28.1668 28.1901 26.866 28.1915ZM5.13439 6.92341C4.4399 6.92414 3.77406 7.20034 3.28298 7.69142C2.7919 8.18251 2.51569 8.84835 2.51496 9.54284V23.2855C2.51545 23.9801 2.79155 24.6462 3.28265 25.1375C3.77376 25.6288 4.43974 25.9051 5.13439 25.9058H26.866C27.5608 25.9051 28.2269 25.6288 28.7181 25.1375C29.2094 24.6463 29.4857 23.9802 29.4864 23.2855V9.54284C29.4854 8.84826 29.209 8.18242 28.7178 7.69137C28.2266 7.20031 27.5606 6.92414 26.866 6.92341H5.13439Z" fill="#B02770"/>
<path d="M15.9864 19.4904C15.0275 19.4998 14.0934 19.1858 13.3349 18.599L1.11278 8.85907C0.87575 8.67005 0.723516 8.39462 0.689567 8.09336C0.655617 7.7921 0.742733 7.4897 0.931749 7.25267C1.12077 7.01564 1.3962 6.86341 1.69746 6.82946C1.99872 6.79551 2.30112 6.88263 2.53815 7.07164L14.7567 16.8115C15.1176 17.0675 15.5495 17.2045 15.992 17.2034C16.4345 17.2022 16.8656 17.063 17.2252 16.8051L29.2929 7.07621C29.5287 6.88598 29.8304 6.79722 30.1317 6.82946C30.4329 6.86169 30.7091 7.01228 30.8993 7.2481C31.0895 7.48391 31.1783 7.78564 31.146 8.0869C31.1138 8.38816 30.9632 8.66427 30.7274 8.8545L18.6634 18.5834C17.8997 19.1806 16.9558 19.5004 15.9864 19.4904Z" fill="#B02770"/>
</svg>
