<svg width="33" height="33" viewBox="0 0 33 33" fill="none" xmlns="http://www.w3.org/2000/svg">
<g clip-path="url(#clip0_258_5551)">
<path d="M0.152067 22.6194C0.152067 26.8265 3.56242 30.2368 7.76949 30.2368C11.9766 30.2368 15.387 26.8265 15.387 22.6194C15.387 18.4122 11.9766 15.0019 7.76949 15.0019C6.90487 15.0019 6.07722 15.1527 5.30242 15.4183C7.01667 5.58663 14.6835 -0.753666 7.57637 4.46453C-0.304334 10.2509 0.143627 22.3866 0.152445 22.609C0.152445 22.6124 0.152067 22.6155 0.152067 22.6194Z" fill="#EEEEEE"/>
<path d="M16.9104 22.6194C16.9104 26.8265 20.3207 30.2368 24.5279 30.2368C28.735 30.2368 32.1454 26.8265 32.1454 22.6194C32.1454 18.4122 28.7349 15.0019 24.5278 15.0019C23.6631 15.0019 22.8355 15.1527 22.0607 15.4183C23.775 5.58663 31.4418 -0.753666 24.3347 4.46453C16.454 10.2509 16.9019 22.3866 16.9108 22.609C16.9108 22.6124 16.9104 22.6155 16.9104 22.6194Z" fill="#EEEEEE"/>
</g>
<defs>
<clipPath id="clip0_258_5551">
<rect width="32" height="32" fill="white" transform="translate(0.145264 0.414062)"/>
</clipPath>
</defs>
</svg>
