<svg width="17" height="15" viewBox="0 0 17 15" fill="none" xmlns="http://www.w3.org/2000/svg">
<path d="M12.1875 0.475586C10.8566 0.475586 9.68981 1.06905 8.81341 2.19187C8.69653 2.34162 8.59234 2.49143 8.5 2.63652C8.40766 2.4914 8.30347 2.34162 8.18659 2.19187C7.31019 1.06905 6.14344 0.475586 4.8125 0.475586C2.29825 0.475586 0.5 2.58081 0.5 5.10696C0.5 7.99549 2.86741 10.7178 8.17616 13.9338C8.27569 13.9941 8.38784 14.0243 8.5 14.0243C8.61216 14.0243 8.72431 13.9941 8.82384 13.9339C14.1326 10.7178 16.5 7.99552 16.5 5.10699C16.5 2.58215 14.7032 0.475586 12.1875 0.475586ZM13.5987 8.70368C12.4934 9.93687 10.8233 11.2354 8.5 12.6669C6.17672 11.2354 4.50656 9.93687 3.40134 8.70371C2.29016 7.46384 1.75 6.28734 1.75 5.10699C1.75 3.28812 2.97919 1.72559 4.8125 1.72559C5.74613 1.72559 6.54219 2.13152 7.17859 2.93215C7.68747 3.57243 7.90188 4.23359 7.90338 4.2383C7.98478 4.4994 8.22653 4.67724 8.50003 4.67724C8.77353 4.67724 9.01528 4.49943 9.09669 4.2383C9.09866 4.23199 9.30663 3.59146 9.79878 2.96096C10.4386 2.14121 11.2423 1.72555 12.1875 1.72555C14.0227 1.72555 15.25 3.28959 15.25 5.10696C15.25 6.2873 14.7098 7.4638 13.5987 8.70368Z" fill="white"/>
</svg>
