<svg width="14" height="14" viewBox="0 0 14 14" fill="none" xmlns="http://www.w3.org/2000/svg">
<path d="M5.41994 13.4075C5.28733 13.4075 5.16016 13.3549 5.06639 13.2611C4.97262 13.1673 4.91994 13.0401 4.91994 12.9075V8.25003L0.682441 3.83253C0.419574 3.5622 0.242365 3.22027 0.173032 2.84963C0.1037 2.47899 0.145331 2.09614 0.292704 1.74906C0.440078 1.40198 0.686636 1.10614 1.00146 0.89862C1.31629 0.691101 1.68538 0.581142 2.06244 0.582533H11.9374C12.3166 0.58197 12.6873 0.694099 13.0026 0.904678C13.3178 1.11526 13.5634 1.41478 13.7081 1.76522C13.8527 2.11565 13.89 2.50117 13.8151 2.87282C13.7402 3.24447 13.5565 3.58548 13.2874 3.85253L8.88244 8.25003V11.8C8.88277 11.9022 8.8518 12.002 8.7937 12.086C8.73559 12.1701 8.65314 12.2343 8.55744 12.27L5.59494 13.375C5.53926 13.3971 5.47983 13.4081 5.41994 13.4075ZM2.06244 1.59253C1.883 1.5921 1.70742 1.64458 1.55765 1.74342C1.40788 1.84225 1.29058 1.98305 1.22041 2.1482C1.15024 2.31335 1.13032 2.49553 1.16314 2.67194C1.19597 2.84835 1.28007 3.01117 1.40494 3.14003L5.77994 7.69253C5.86988 7.78584 5.92007 7.91043 5.91994 8.04003V12.1875L7.88244 11.4525V8.04753C7.883 7.91514 7.93604 7.78837 8.02994 7.69503L12.5824 3.15503C12.7105 3.02721 12.7977 2.86432 12.8332 2.68693C12.8686 2.50954 12.8507 2.32561 12.7817 2.1584C12.7127 1.99118 12.5956 1.84818 12.4454 1.74746C12.2951 1.64674 12.1183 1.59283 11.9374 1.59253H2.06244Z" fill="#A5A5A5"/>
</svg>
