<svg width="20" height="20" viewBox="0 0 20 20" fill="none" xmlns="http://www.w3.org/2000/svg">
<path fill-rule="evenodd" clip-rule="evenodd" d="M11.5158 3.88802C10.6202 3.14758 9.38041 3.14758 8.48491 3.88802L3.99648 7.59905C3.5872 7.93745 3.33366 8.4721 3.33366 9.0546V14.8418C3.33366 15.898 4.12711 16.666 5.00033 16.666H6.66699V13.9559C6.66699 12.0766 8.11212 10.4649 10.0003 10.4649C11.8886 10.4649 13.3337 12.0766 13.3337 13.9559V16.666H15.0003C15.8736 16.666 16.667 15.898 16.667 14.8418V9.0546C16.667 8.4721 16.4135 7.93745 16.0042 7.59906L11.5158 3.88802ZM12.5778 2.60353L17.0662 6.31458C17.8748 6.98318 18.3337 7.99689 18.3337 9.0546V14.8418C18.3337 16.721 16.8886 18.3327 15.0003 18.3327H13.3337C12.4132 18.3327 11.667 17.5865 11.667 16.666V13.9559C11.667 12.8996 10.8736 12.1316 10.0003 12.1316C9.12708 12.1316 8.33366 12.8996 8.33366 13.9559V16.666C8.33366 17.5865 7.58747 18.3327 6.66699 18.3327H5.00033C3.11212 18.3327 1.66699 16.721 1.66699 14.8418V9.0546C1.66699 7.99689 2.12582 6.98318 2.93447 6.31458L7.42285 2.60353C8.93474 1.35351 11.0659 1.35351 12.5778 2.60353Z" fill="#A5A5A5" stroke="white" stroke-width="0.5"/>
</svg>
