<svg width="20" height="20" viewBox="0 0 20 20" fill="none" xmlns="http://www.w3.org/2000/svg">
<path fill-rule="evenodd" clip-rule="evenodd" d="M11.5156 3.88802C10.62 3.14758 9.38017 3.14758 8.48466 3.88802L3.99624 7.59905C3.58696 7.93745 3.33341 8.4721 3.33341 9.0546V14.8418C3.33341 15.898 4.12686 16.666 5.00008 16.666H6.66675V13.9559C6.66675 12.0766 8.11187 10.4649 10.0001 10.4649C11.8883 10.4649 13.3334 12.0766 13.3334 13.9559V16.666H15.0001C15.8733 16.666 16.6667 15.898 16.6667 14.8418V9.0546C16.6667 8.4721 16.4132 7.93745 16.0039 7.59906L11.5156 3.88802ZM12.5776 2.60353L17.0659 6.31458C17.8746 6.98318 18.3334 7.99689 18.3334 9.0546V14.8418C18.3334 16.721 16.8883 18.3327 15.0001 18.3327H13.3334C12.4129 18.3327 11.6667 17.5865 11.6667 16.666V13.9559C11.6667 12.8996 10.8733 12.1316 10.0001 12.1316C9.12683 12.1316 8.33341 12.8996 8.33341 13.9559V16.666C8.33341 17.5865 7.58722 18.3327 6.66675 18.3327H5.00008C3.11187 18.3327 1.66675 16.721 1.66675 14.8418V9.0546C1.66675 7.99689 2.12557 6.98318 2.93422 6.31458L7.42261 2.60353C8.9345 1.35351 11.0657 1.35351 12.5776 2.60353Z" fill="#B02770" stroke="white" stroke-width="0.5"/>
</svg>
