<svg width="26" height="24" viewBox="0 0 26 24" fill="none" xmlns="http://www.w3.org/2000/svg">
<path d="M25.1883 11.75V19.25C25.2617 19.8833 25.1909 20.5251 24.9813 21.1272C24.7717 21.7293 24.4287 22.2762 23.9778 22.727C23.527 23.1779 22.9801 23.5209 22.3779 23.7305C21.7758 23.9402 21.1341 24.0109 20.5008 23.9375H5.50078C4.86745 24.0109 4.22573 23.9402 3.62361 23.7305C3.02149 23.5209 2.47456 23.1779 2.02373 22.727C1.5729 22.2762 1.22985 21.7293 1.02024 21.1272C0.810624 20.5251 0.739873 19.8833 0.813278 19.25V6.75C0.739873 6.11668 0.810624 5.47495 1.02024 4.87283C1.22985 4.27071 1.5729 3.72378 2.02373 3.27295C2.47456 2.82212 3.02149 2.47907 3.62361 2.26946C4.22573 2.05985 4.86745 1.98909 5.50078 2.0625H14.2508C14.4994 2.0625 14.7379 2.16127 14.9137 2.33709C15.0895 2.5129 15.1883 2.75136 15.1883 3C15.1883 3.24864 15.0895 3.4871 14.9137 3.66291C14.7379 3.83873 14.4994 3.9375 14.2508 3.9375H5.50078C3.52953 3.9375 2.68828 4.77875 2.68828 6.75V18.3125L5.86328 15.1375C6.09929 14.9033 6.41829 14.7719 6.75078 14.7719C7.08326 14.7719 7.40227 14.9033 7.63828 15.1375L8.81328 16.3125C8.93011 16.427 9.08718 16.4912 9.25078 16.4912C9.41437 16.4912 9.57145 16.427 9.68828 16.3125L15.8633 10.1375C16.0993 9.90331 16.4183 9.7719 16.7508 9.7719C17.0833 9.7719 17.4023 9.90331 17.6383 10.1375L23.3133 15.8125V11.75C23.3133 11.5014 23.412 11.2629 23.5879 11.0871C23.7637 10.9113 24.0021 10.8125 24.2508 10.8125C24.4994 10.8125 24.7379 10.9113 24.9137 11.0871C25.0895 11.2629 25.1883 11.5014 25.1883 11.75ZM7.99203 7.6875C7.57701 7.68866 7.17942 7.85449 6.88658 8.14856C6.59373 8.44264 6.42957 8.84092 6.43015 9.25593C6.43073 9.67095 6.596 10.0688 6.88967 10.362C7.18334 10.6553 7.58139 10.82 7.9964 10.82C8.41142 10.82 8.80947 10.6553 9.10313 10.362C9.3968 10.0688 9.56207 9.67095 9.56265 9.25593C9.56323 8.84092 9.39907 8.44264 9.10623 8.14856C8.81338 7.85449 8.41579 7.68866 8.00078 7.6875H7.99203ZM19.2508 5.1875H20.8133V6.75C20.8133 6.99864 20.912 7.2371 21.0879 7.41291C21.2637 7.58873 21.5021 7.6875 21.7508 7.6875C21.9994 7.6875 22.2379 7.58873 22.4137 7.41291C22.5895 7.2371 22.6883 6.99864 22.6883 6.75V5.1875H24.2508C24.4994 5.1875 24.7379 5.08873 24.9137 4.91291C25.0895 4.7371 25.1883 4.49864 25.1883 4.25C25.1883 4.00136 25.0895 3.7629 24.9137 3.58709C24.7379 3.41127 24.4994 3.3125 24.2508 3.3125H22.6883V1.75C22.6883 1.50136 22.5895 1.2629 22.4137 1.08709C22.2379 0.911272 21.9994 0.8125 21.7508 0.8125C21.5021 0.8125 21.2637 0.911272 21.0879 1.08709C20.912 1.2629 20.8133 1.50136 20.8133 1.75V3.3125H19.2508C19.0021 3.3125 18.7637 3.41127 18.5879 3.58709C18.412 3.7629 18.3133 4.00136 18.3133 4.25C18.3133 4.49864 18.412 4.7371 18.5879 4.91291C18.7637 5.08873 19.0021 5.1875 19.2508 5.1875Z" fill="#B02770"/>
</svg>
