<svg width="17" height="17" viewBox="0 0 17 17" fill="none" xmlns="http://www.w3.org/2000/svg">
<g clip-path="url(#clip0_60_22243)">
<path d="M12.1875 1.47559C10.8566 1.47559 9.68981 2.06905 8.81341 3.19187C8.69653 3.34162 8.59234 3.49143 8.5 3.63652C8.40766 3.4914 8.30347 3.34162 8.18659 3.19187C7.31019 2.06905 6.14344 1.47559 4.8125 1.47559C2.29825 1.47559 0.5 3.58081 0.5 6.10696C0.5 8.99549 2.86741 11.7178 8.17616 14.9338C8.27569 14.9941 8.38784 15.0243 8.5 15.0243C8.61216 15.0243 8.72431 14.9941 8.82384 14.9339C14.1326 11.7178 16.5 8.99552 16.5 6.10699C16.5 3.58215 14.7032 1.47559 12.1875 1.47559ZM13.5987 9.70368C12.4934 10.9369 10.8233 12.2354 8.5 13.6669C6.17672 12.2354 4.50656 10.9369 3.40134 9.70371C2.29016 8.46384 1.75 7.28734 1.75 6.10699C1.75 4.28812 2.97919 2.72559 4.8125 2.72559C5.74613 2.72559 6.54219 3.13152 7.17859 3.93215C7.68747 4.57243 7.90188 5.23359 7.90338 5.2383C7.98478 5.4994 8.22653 5.67724 8.50003 5.67724C8.77353 5.67724 9.01528 5.49943 9.09669 5.2383C9.09866 5.23199 9.30663 4.59146 9.79878 3.96096C10.4386 3.14121 11.2423 2.72555 12.1875 2.72555C14.0227 2.72555 15.25 4.28959 15.25 6.10696C15.25 7.2873 14.7098 8.4638 13.5987 9.70368Z" fill="white"/>
</g>
<defs>
<clipPath id="clip0_60_22243">
<rect width="16" height="16" fill="white" transform="translate(0.5 0.5)"/>
</clipPath>
</defs>
</svg>
