<svg width="17" height="15" viewBox="0 0 17 15" fill="none" xmlns="http://www.w3.org/2000/svg">
<path d="M12.1875 0.889648C10.8566 0.889648 9.68981 1.48312 8.81341 2.60593C8.69653 2.75568 8.59234 2.90549 8.5 3.05059C8.40766 2.90546 8.30347 2.75568 8.18659 2.60593C7.31019 1.48312 6.14344 0.889648 4.8125 0.889648C2.29825 0.889648 0.5 2.99487 0.5 5.52102C0.5 8.40955 2.86741 11.1319 8.17616 14.3479C8.27569 14.4082 8.38784 14.4383 8.5 14.4383C8.61216 14.4383 8.72431 14.4082 8.82384 14.3479C14.1326 11.1319 16.5 8.40959 16.5 5.52105C16.5 2.99621 14.7032 0.889648 12.1875 0.889648ZM13.5987 9.11774C12.4934 10.3509 10.8233 11.6494 8.5 13.081C6.17672 11.6494 4.50656 10.3509 3.40134 9.11777C2.29016 7.8779 1.75 6.7014 1.75 5.52105C1.75 3.70218 2.97919 2.13965 4.8125 2.13965C5.74613 2.13965 6.54219 2.54559 7.17859 3.34621C7.68747 3.98649 7.90188 4.64765 7.90338 4.65237C7.98478 4.91346 8.22653 5.0913 8.50003 5.0913C8.77353 5.0913 9.01528 4.91349 9.09669 4.65237C9.09866 4.64605 9.30663 4.00552 9.79878 3.37502C10.4386 2.55527 11.2423 2.13962 12.1875 2.13962C14.0227 2.13962 15.25 3.70365 15.25 5.52102C15.25 6.70137 14.7098 7.87787 13.5987 9.11774Z" fill="#666666"/>
</svg>
