<svg width="201" height="28" viewBox="0 0 201 28" fill="none" xmlns="http://www.w3.org/2000/svg">
<path d="M22.4371 0.365527V6.21007H14.9695V25.7766H8.08766V6.21007H0.620117V0.365527H22.4371ZM52.0144 13.0711C52.1608 20.1136 45.6816 26.2848 38.2873 26.1396C30.8929 26.2848 24.4138 20.1136 24.5602 13.0711C24.4138 6.02857 30.8929 -0.142694 38.2873 0.00251188C45.6816 -0.142694 52.1608 6.02857 52.0144 13.0711ZM31.7715 13.0711C31.7715 16.7375 34.4803 19.7142 38.2873 19.7142C42.0576 19.7142 44.8397 16.7375 44.8397 13.0711C44.8397 9.40461 42.0576 6.42788 38.2873 6.42788C34.4803 6.42788 31.7715 9.40461 31.7715 13.0711ZM56.534 0.365527H67.7719C75.4957 0.365527 79.0465 3.23335 79.0465 9.44091C79.0465 15.6485 75.5323 18.5889 68.5041 18.5889H63.4525V25.7766H56.534V0.365527ZM67.6987 6.28268H63.4525V12.708H67.7353C70.7736 12.708 72.128 11.6916 72.128 9.51351C72.128 7.29912 70.737 6.28268 67.6987 6.28268Z" fill="#1D1F1F"/>
<path d="M116.885 3.03335L113.813 8.71115C112.296 7.97226 110.663 7.35004 108.99 6.92226C107.318 6.45559 105.918 6.22225 104.713 6.22225C102.768 6.22225 101.796 6.84448 101.796 8.05004C101.796 8.78893 102.185 9.10004 105.296 9.9556L107.785 10.6556C114.124 12.4445 117.274 13.9612 117.468 19.1723C117.468 24.7723 113.113 28.0001 105.685 28.0001C100.979 28.0001 96.3903 26.6779 92.6958 24.189L95.9625 18.7445C99.3458 20.6501 103.274 21.7001 106.346 21.7001C108.524 21.7001 109.729 21.1168 109.729 19.6001C109.729 18.6279 109.185 18.2779 106.035 17.5001L103.351 16.839C97.1292 15.2834 94.018 13.7278 93.8625 8.63337C93.8625 5.79447 94.9125 3.65557 97.0125 2.21668C99.1514 0.738895 101.913 0 105.335 0C109.496 0 113.657 1.12779 116.885 3.03335Z" fill="#B02770"/>
<path d="M141.748 27.6169L139.998 22.8335H129.576L127.865 27.6169H119.192L129.965 0.394531H139.57L150.381 27.6169H141.748ZM131.676 16.9613H137.898L134.748 8.28901L131.676 16.9613Z" fill="#307CD7"/>
<path d="M161.453 0.394531V21.0446H174.753V27.6169H154.103V0.394531H161.453Z" fill="#F3B118"/>
<path d="M200.767 0.394531V6.889H185.794V10.7779H199.717V16.8835H185.794V21.1224H201V27.6169H178.444V0.394531H200.767Z" fill="#8DC936"/>
</svg>
