<svg width="20" height="20" viewBox="0 0 20 20" fill="none" xmlns="http://www.w3.org/2000/svg">
<g clip-path="url(#clip0_70_29143)">
<path d="M15 16C15 16.5523 14.5523 17 14 17L1 17C0.447735 17 3.91422e-08 16.5523 8.74228e-08 16C1.35703e-07 15.4477 0.447735 15 1 15L14 15C14.5523 15 15 15.4478 15 16ZM1 11L19 11C19.5523 11 20 10.5522 20 10C20 9.44773 19.5523 9 19 9L1 9C0.447736 9 6.6024e-07 9.44773 6.11959e-07 10C5.63682e-07 10.5522 0.447735 11 1 11ZM1 5L10 5C10.5522 5 11 4.55227 11 4C11 3.44777 10.5522 3 10 3L1 3C0.447736 3 1.18477e-06 3.44777 1.1365e-06 4C1.08822e-06 4.55226 0.447736 5 1 5Z" fill="#A5A5A5" stroke="#F4F4F4" stroke-width="0.5"/>
</g>
<defs>
<clipPath id="clip0_70_29143">
<rect width="20" height="20" fill="white" transform="translate(20 20) rotate(-180)"/>
</clipPath>
</defs>
</svg>
