<svg width="16" height="14" viewBox="0 0 16 14" fill="none" xmlns="http://www.w3.org/2000/svg">
<path d="M11.9263 13.65L6.28935 11.185V11.121L15.8439 0.885L13.6133 12.758C13.5966 12.8485 13.5691 12.9368 13.5315 13.021C13.4376 13.2371 13.2819 13.4213 13.0836 13.5508C12.8852 13.6804 12.6529 13.7496 12.4152 13.75C12.247 13.7511 12.0803 13.717 11.9263 13.65ZM5.48927 12.557V11.706L8.00367 12.806L7.64908 13.277C7.49794 13.4767 7.28704 13.6242 7.04636 13.6985C6.80569 13.7728 6.54748 13.7701 6.30843 13.6909C6.06939 13.6116 5.86167 13.4597 5.71479 13.2569C5.56791 13.0541 5.48936 12.8106 5.49028 12.561L5.48927 12.557ZM5.50745 10.844L1.42017 9.059C1.20602 8.96435 1.02367 8.81109 0.89458 8.61727C0.765492 8.42345 0.695047 8.19715 0.691544 7.96503C0.68804 7.7329 0.751625 7.50462 0.874808 7.30707C0.99799 7.10953 1.17564 6.95094 1.38683 6.85L15.3145 0.263L15.3448 0.25L5.59534 10.695C5.55572 10.7374 5.52605 10.7879 5.50846 10.843L5.50745 10.844Z" fill="white"/>
</svg>
