<svg width="20" height="20" viewBox="0 0 20 20" fill="none" xmlns="http://www.w3.org/2000/svg">
<path d="M15.1415 13.5417H4.85832V14.7917H15.1415V13.5417ZM14.6458 7.39872L14.9332 9.93575L16.1753 9.79508L15.8879 7.25801L14.6458 7.39872ZM5.06652 9.93575L5.35392 7.39872L4.11187 7.25801L3.82447 9.79508L5.06652 9.93575ZM4.18908 11.9714C4.6763 11.3979 4.98132 10.6879 5.06652 9.93575L3.82447 9.79508C3.76685 10.3038 3.56087 10.7803 3.23647 11.162L4.18908 11.9714ZM14.9332 9.93575C15.0185 10.6879 15.3235 11.3979 15.8106 11.9714L16.7633 11.162C16.4389 10.7803 16.2329 10.3038 16.1753 9.79508L14.9332 9.93575ZM4.85832 13.5417C4.11932 13.5417 3.64925 12.6068 4.18908 11.9714L3.23647 11.162C2.05396 12.5539 2.98177 14.7917 4.85832 14.7917V13.5417ZM15.1415 14.7917C17.018 14.7917 17.9458 12.5539 16.7633 11.162L15.8106 11.9714C16.3505 12.6068 15.8805 13.5417 15.1415 13.5417V14.7917ZM15.8879 7.25801C15.5419 4.20394 13.0231 1.875 9.99987 1.875V3.125C12.3584 3.125 14.3681 4.94748 14.6458 7.39872L15.8879 7.25801ZM5.35392 7.39872C5.6316 4.94748 7.64134 3.125 9.99987 3.125V1.875C6.97663 1.875 4.45783 4.20394 4.11187 7.25801L5.35392 7.39872Z" fill="#666666"/>
<path d="M13.0849 16.0515C13.2061 15.7283 13.0423 15.3681 12.719 15.247C12.3958 15.1258 12.0356 15.2896 11.9144 15.6129L13.0849 16.0515ZM8.08493 15.6129C7.9638 15.2896 7.60357 15.1258 7.28035 15.247C6.95712 15.3681 6.7933 15.7283 6.91443 16.0515L8.08493 15.6129ZM11.9144 15.6129C11.6455 16.3305 10.9035 16.8739 9.99968 16.8739V18.1239C11.4043 18.1239 12.626 17.276 13.0849 16.0515L11.9144 15.6129ZM9.99968 16.8739C9.09585 16.8739 8.35385 16.3305 8.08493 15.6129L6.91443 16.0515C7.37331 17.276 8.5951 18.1239 9.99968 18.1239V16.8739Z" fill="#666666"/>
</svg>
