<svg width="20" height="20" viewBox="0 0 20 20" fill="none" xmlns="http://www.w3.org/2000/svg">
<g clip-path="url(#clip0_70_30000)">
<path d="M13.313 0H6.65844C5.48406 0.00133168 4.53242 0.952981 4.53125 2.12735V17.8728C4.53242 19.0471 5.48406 19.9988 6.65844 19.9999H13.313C14.4874 19.9988 15.439 19.0471 15.4403 17.8728V2.12735C15.439 0.952981 14.4874 0.00133168 13.313 0ZM14.5311 17.8728C14.5305 18.5453 13.9855 19.0902 13.313 19.0909H6.65844C5.98594 19.0902 5.44095 18.5453 5.44029 17.8728V2.12735C5.44095 1.45469 5.98594 0.909701 6.65844 0.909035H13.313C13.9855 0.909701 14.5305 1.45469 14.5311 2.12735V17.8728Z" fill="#9E9E9E"/>
<path d="M11.3496 1.81836H8.62233C8.3713 1.81836 8.16772 2.02177 8.16772 2.27279C8.16772 2.52381 8.3713 2.72739 8.62233 2.72739H11.3496C11.6006 2.72739 11.804 2.52381 11.804 2.27279C11.804 2.02177 11.6006 1.81836 11.3496 1.81836Z" fill="#9E9E9E"/>
<path d="M10.8949 17.2728C10.8949 17.775 10.4879 18.182 9.98586 18.182C9.48365 18.182 9.07666 17.775 9.07666 17.2728C9.07666 16.7708 9.48365 16.3638 9.98586 16.3638C10.4879 16.3638 10.8949 16.7708 10.8949 17.2728Z" fill="#9E9E9E"/>
</g>
<defs>
<clipPath id="clip0_70_30000">
<rect width="20" height="20" fill="white"/>
</clipPath>
</defs>
</svg>
