<svg width="73" height="72" viewBox="0 0 73 72" fill="none" xmlns="http://www.w3.org/2000/svg">
<path d="M62.7675 36.1519C62.7023 36.4918 62.7742 36.8436 62.9674 37.1306C63.1606 37.4177 63.4595 37.6166 63.7988 37.6841C64.1382 37.7516 64.4905 37.6822 64.7788 37.4909C65.0672 37.2996 65.2682 37.002 65.3379 36.6631L68.7939 18.9367C68.9295 18.2785 68.932 17.5997 68.8013 16.9405C68.6707 16.2812 68.4095 15.6547 68.0331 15.0979C67.6568 14.5411 67.1729 14.0652 66.6098 13.6981C66.0468 13.3311 65.4161 13.0804 64.7547 12.9607L47.5539 9.57675L47.1867 7.66155C46.8918 6.31874 46.077 5.14743 44.9206 4.40393C43.7642 3.66043 42.3604 3.40529 41.0163 3.69435L15.3627 8.71275C15.1985 8.73479 15.0412 8.79264 14.9018 8.88223C14.7625 8.97181 14.6445 9.09093 14.5563 9.23115L4.49072 23.7607C4.33136 23.9148 4.21249 24.1058 4.14467 24.3168C4.07684 24.5278 4.06216 24.7523 4.10192 24.9703L11.7627 63.8072C12.0465 65.1619 12.8567 66.3484 14.0152 67.1059C15.1736 67.8633 16.5855 68.1297 17.9403 67.8464L39.6195 63.656C39.7836 63.6219 39.9393 63.5559 40.0778 63.4617C40.2164 63.3674 40.335 63.2468 40.4269 63.1068C40.5189 62.9667 40.5823 62.8099 40.6136 62.6453C40.645 62.4807 40.6436 62.3116 40.6095 62.1475C40.5755 61.9835 40.5095 61.8278 40.4152 61.6892C40.321 61.5507 40.2004 61.4321 40.0604 61.3401C39.9203 61.2482 39.7635 61.1848 39.5989 61.1534C39.4343 61.1221 39.2652 61.1235 39.1011 61.1576L17.4219 65.3479C17.0838 65.4171 16.7353 65.4186 16.3966 65.3524C16.0578 65.2861 15.7356 65.1535 15.4484 64.962C15.1612 64.7706 14.9148 64.5241 14.7234 64.2369C14.532 63.9497 14.3993 63.6275 14.3331 63.2887L6.90992 25.7047L14.0451 24.3079C15.3961 24.0363 16.5855 23.2429 17.3552 22.0998C18.1248 20.9568 18.4127 19.5563 18.1563 18.2023L16.7595 11.0671L41.5419 6.21435C41.8754 6.13832 42.2208 6.12962 42.5577 6.18876C42.8946 6.2479 43.2163 6.3737 43.504 6.55877C43.7916 6.74385 44.0395 6.98448 44.233 7.26657C44.4264 7.54866 44.5617 7.86652 44.6307 8.20155C46.6179 18.2815 48.5979 28.4263 50.5851 38.5063C47.5814 38.9471 44.6998 39.9983 42.1179 41.5951C39.3243 43.7983 37.8555 46.3759 38.8851 50.048C40.6077 56.0233 43.7019 61.5139 47.9211 66.0823C48.6325 66.815 49.4836 67.3974 50.4242 67.7952C51.3647 68.1929 52.3755 68.3978 53.3967 68.3978C54.4179 68.3978 55.4287 68.1929 56.3693 67.7952C57.3098 67.3974 58.161 66.815 58.8723 66.0823C63.1628 61.5255 66.2898 56.0002 67.9875 49.976C68.4159 48.4095 68.3255 46.7464 67.7297 45.2356C67.134 43.7248 66.065 42.4476 64.6827 41.5951C61.2455 39.4045 57.238 38.2774 53.1627 38.3551L52.3563 34.0351L53.7963 34.3303C55.4883 34.6255 55.9995 32.1271 54.3075 31.8319L51.7371 31.2415L50.5635 24.9199L57.2523 26.1655C58.9371 26.4607 59.3043 23.9623 57.6915 23.5951L49.9803 22.1767L48.0723 12.3199L64.2363 15.4807C64.5588 15.5333 64.8674 15.6504 65.1435 15.8252C65.4197 15.9999 65.6577 16.2286 65.8432 16.4976C66.0288 16.7665 66.1582 17.0702 66.2235 17.3903C66.2889 17.7105 66.2889 18.0406 66.2235 18.3607L62.7675 36.1519ZM17.2059 45.0511C15.5859 45.3463 16.0971 47.9311 17.7171 47.5495L34.5435 44.1655C34.8748 44.0978 35.1656 43.9011 35.352 43.6189C35.5383 43.3367 35.6049 42.9921 35.5371 42.6607C35.4693 42.3294 35.2727 42.0386 34.9905 41.8523C34.7083 41.666 34.3636 41.5994 34.0323 41.6671L17.2059 45.0511ZM43.2195 32.4007L15.7299 37.9879C14.1171 38.2831 14.6283 40.7815 16.2483 40.4863L43.7019 34.8991C43.8739 34.8761 44.0395 34.8182 44.1883 34.729C44.3372 34.6397 44.4662 34.521 44.5676 34.3801C44.6689 34.2393 44.7404 34.0791 44.7777 33.9096C44.8149 33.7401 44.8172 33.5648 44.7843 33.3944C44.7514 33.224 44.684 33.0621 44.5863 32.9186C44.4886 32.7752 44.3627 32.6532 44.2161 32.5602C44.0696 32.4671 43.9057 32.405 43.7343 32.3776C43.5629 32.3502 43.3877 32.3581 43.2195 32.4007ZM41.7795 25.2655L14.3331 30.8527C12.7203 31.1479 13.2315 33.6463 14.8515 33.3511L42.2619 27.7639C42.426 27.7304 42.5818 27.6648 42.7205 27.571C42.8592 27.4773 42.9781 27.3571 43.0704 27.2173C43.1626 27.0776 43.2265 26.9211 43.2582 26.7567C43.29 26.5922 43.2891 26.4232 43.2555 26.2591C43.222 26.0951 43.1564 25.9393 43.0626 25.8006C42.9688 25.6618 42.8486 25.543 42.7089 25.4507C42.5692 25.3584 42.4126 25.2946 42.2482 25.2628C42.0838 25.2311 41.9148 25.232 41.7507 25.2655H41.7795ZM50.3763 56.0815C50.6058 56.3171 50.88 56.5043 51.183 56.6322C51.486 56.76 51.8115 56.8259 52.1403 56.8259C52.4692 56.8259 52.7947 56.76 53.0976 56.6322C53.4006 56.5043 53.6749 56.3171 53.9043 56.0815L60.0459 49.7527C61.2267 48.5791 59.3907 46.7431 58.2099 47.9167L52.1835 54.2455L49.3035 51.3655C48.1299 50.1919 46.2939 52.028 47.4675 53.2087L50.3763 56.0815ZM13.5267 21.8095L8.30672 22.7599L14.6283 13.6807L15.6579 18.7207C15.7698 19.4153 15.6069 20.1262 15.2037 20.7028C14.8005 21.2793 14.1887 21.6763 13.4979 21.8095H13.5267ZM63.2859 43.7263C64.2215 44.2807 64.9459 45.1308 65.3449 46.1424C65.7438 47.1541 65.7946 48.2698 65.4891 49.3135C63.9083 54.9176 61.0101 60.0623 57.0363 64.3183C56.0575 65.2578 54.7534 65.7824 53.3967 65.7824C52.04 65.7824 50.7359 65.2578 49.7571 64.3183C45.8095 60.0559 42.9384 54.9113 41.3835 49.3135C41.0592 48.2858 41.0967 47.178 41.4897 46.1745C41.8827 45.1711 42.6075 44.3325 43.5435 43.7983C46.4937 41.9147 49.9184 40.9078 53.4187 40.8951C56.919 40.8823 60.3508 41.8642 63.3147 43.7263H63.2859Z" fill="#B02770"/>
</svg>
