<svg width="35" height="35" viewBox="0 0 35 35" fill="none" xmlns="http://www.w3.org/2000/svg">
<rect x="0.5" y="0.5" width="34" height="34" rx="17" fill="#F8F8F8"/>
<rect x="0.5" y="0.5" width="34" height="34" rx="17" stroke="#EEEEEE"/>
<path d="M24.1642 12.1676V15.5009C24.1642 15.6777 24.0939 15.8473 23.9689 15.9723C23.8439 16.0973 23.6743 16.1676 23.4975 16.1676H20.1642C19.9874 16.1676 19.8178 16.0973 19.6928 15.9723C19.5677 15.8473 19.4975 15.6777 19.4975 15.5009C19.4975 15.3241 19.5677 15.1545 19.6928 15.0295C19.8178 14.9045 19.9874 14.8342 20.1642 14.8342H22.1042C21.5081 13.809 20.5868 13.0121 19.4863 12.57C18.3859 12.1278 17.1693 12.0658 16.0296 12.3937C14.8899 12.7215 13.8923 13.4205 13.195 14.3798C12.4977 15.3391 12.1407 16.5038 12.1805 17.689C12.2204 18.8743 12.6548 20.0123 13.415 20.9226C14.1751 21.8329 15.2174 22.4634 16.3766 22.7139C17.5358 22.9645 18.7454 22.8209 19.8137 22.3059C20.8819 21.7908 21.7476 20.9339 22.2735 19.8709C22.3121 19.7918 22.3659 19.7212 22.4319 19.663C22.4979 19.6049 22.5747 19.5603 22.658 19.532C22.7413 19.5037 22.8293 19.4921 22.9171 19.498C23.0049 19.5038 23.0906 19.527 23.1694 19.5661C23.2482 19.6053 23.3184 19.6596 23.3761 19.726C23.4337 19.7924 23.4777 19.8696 23.5054 19.9531C23.5331 20.0366 23.5441 20.1247 23.5375 20.2125C23.531 20.3002 23.5072 20.3857 23.4675 20.4642C22.8226 21.7647 21.7709 22.8192 20.4721 23.4675C19.1734 24.1158 17.6985 24.3224 16.2715 24.0561C14.8445 23.7897 13.5435 23.0649 12.5661 21.9917C11.5886 20.9185 10.9881 19.5556 10.8559 18.1101C10.7236 16.6645 11.0668 15.2153 11.8332 13.9825C12.5997 12.7498 13.7476 11.8009 15.1025 11.28C16.4574 10.7591 17.9453 10.6946 19.3402 11.0964C20.7351 11.4982 21.9607 12.3444 22.8308 13.5062V12.1676C22.8308 11.9907 22.9011 11.8212 23.0261 11.6962C23.1511 11.5711 23.3207 11.5009 23.4975 11.5009C23.6743 11.5009 23.8439 11.5711 23.9689 11.6962C24.0939 11.8212 24.1642 11.9907 24.1642 12.1676Z" fill="#666666"/>
</svg>
