<svg width="41" height="41" viewBox="0 0 41 41" fill="none" xmlns="http://www.w3.org/2000/svg">
<path d="M26.5835 9.97656H14.0835C11.4988 9.97656 9.396 12.0794 9.396 14.6641V27.1641C9.396 29.7488 11.4988 31.8516 14.0835 31.8516H26.5835C29.1682 31.8516 31.271 29.7488 31.271 27.1641V14.6641C31.271 12.0794 29.1682 9.97656 26.5835 9.97656ZM28.146 27.1641C28.146 28.0256 27.4451 28.7266 26.5835 28.7266H14.0835C13.2219 28.7266 12.521 28.0256 12.521 27.1641V14.6641C12.521 13.8025 13.2219 13.1016 14.0835 13.1016H18.771V17.7891C18.771 18.652 19.4705 19.3516 20.3335 19.3516C21.1965 19.3516 21.896 18.652 21.896 17.7891V13.1016H26.5835C27.4451 13.1016 28.146 13.8025 28.146 14.6641V27.1641Z" fill="#B02770"/>
<path d="M35.9585 3.72656C35.0955 3.72656 34.396 4.42609 34.396 5.28906V6.30211C33.1022 5.0907 31.6397 4.05367 30.0515 3.22969C27.1316 1.71484 23.7711 0.914062 20.3335 0.914062C9.1185 0.914062 0.333496 9.69914 0.333496 20.9141C0.333496 22.0487 0.427949 23.1872 0.614277 24.2977C0.74248 25.0612 1.40404 25.6019 2.15342 25.6018C2.23928 25.6018 2.32631 25.5947 2.41381 25.58C3.2649 25.4372 3.83896 24.6316 3.69623 23.7805C3.53842 22.8405 3.4585 21.876 3.4585 20.9141C3.4585 11.4514 10.8709 4.03906 20.3335 4.03906C26.3215 4.03906 31.5423 6.72609 34.6574 11.4111C35.0388 11.9848 35.751 12.2409 36.4104 12.0417C37.0697 11.8425 37.521 11.2348 37.521 10.5459V5.28906C37.521 4.42609 36.8215 3.72656 35.9585 3.72656Z" fill="#B02770"/>
<path d="M20.3335 40.9143C16.8959 40.9143 13.5354 40.1135 10.6154 38.5986C9.02732 37.7746 7.56475 36.7377 6.271 35.5263V36.5393C6.271 37.4023 5.57146 38.1018 4.7085 38.1018C3.84553 38.1018 3.146 37.4023 3.146 36.5393V31.2824C3.146 30.5935 3.59717 29.986 4.25662 29.7867C4.91592 29.5875 5.62818 29.8435 6.00959 30.4173C9.12467 35.1023 14.3455 37.7893 20.3335 37.7893C29.7961 37.7893 37.2085 30.377 37.2085 20.9143C37.2085 19.9524 37.1286 18.9879 36.9708 18.0479C36.828 17.1968 37.4021 16.3912 38.2532 16.2484C39.1045 16.1055 39.9099 16.6797 40.0527 17.5308C40.239 18.6412 40.3335 19.7796 40.3335 20.9143C40.3335 32.1292 31.5485 40.9143 20.3335 40.9143Z" fill="#B02770"/>
</svg>
