<svg width="35" height="35" viewBox="0 0 35 35" fill="none" xmlns="http://www.w3.org/2000/svg">
<rect x="0.5" y="0.5" width="34" height="34" rx="17" fill="#F8F8F8"/>
<rect x="0.5" y="0.5" width="34" height="34" rx="17" stroke="#EEEEEE"/>
<path d="M24.7447 11.8333C24.7447 13.1047 23.7141 14.1355 22.4427 14.1355C21.1712 14.1355 20.1406 13.1047 20.1406 11.8333C20.1406 10.562 21.1712 9.53125 22.4427 9.53125C23.7141 9.53125 24.7447 10.562 24.7447 11.8333Z" fill="#666666"/>
<path d="M24.7447 23.1615C24.7447 24.4329 23.7141 25.4636 22.4427 25.4636C21.1712 25.4636 20.1406 24.4329 20.1406 23.1615C20.1406 21.8901 21.1712 20.8594 22.4427 20.8594C23.7141 20.8594 24.7447 21.8901 24.7447 23.1615Z" fill="#666666"/>
<path d="M14.8308 17.5052C14.8308 18.7766 13.8 19.8072 12.5286 19.8072C11.2573 19.8072 10.2266 18.7766 10.2266 17.5052C10.2266 16.2337 11.2573 15.2031 12.5286 15.2031C13.8 15.2031 14.8308 16.2337 14.8308 17.5052Z" fill="#666666"/>
<path d="M14.2012 17.1646C13.9547 17.1646 13.7152 17.0364 13.5849 16.8069C13.3915 16.4676 13.5106 16.0348 13.8499 15.8407L20.4224 12.0937C20.7617 11.8988 21.1945 12.0179 21.3887 12.3585C21.582 12.6978 21.463 13.1306 21.1237 13.3248L14.551 17.0718C14.4405 17.1348 14.3202 17.1646 14.2012 17.1646Z" fill="#666666"/>
<path d="M20.7802 23.0083C20.6611 23.0083 20.5408 22.9784 20.4302 22.9154L13.8576 19.1684C13.5183 18.975 13.3994 18.5422 13.5927 18.2021C13.7853 17.8622 14.2188 17.7425 14.5589 17.9373L21.1315 21.6843C21.4708 21.8777 21.5898 22.3105 21.3964 22.6505C21.2654 22.88 21.026 23.0083 20.7802 23.0083Z" fill="#666666"/>
</svg>
