<svg width="16" height="16" viewBox="0 0 16 16" fill="none" xmlns="http://www.w3.org/2000/svg">
<g clip-path="url(#clip0_381_6652)">
<path d="M12.3845 9.9624C11.4516 9.9624 10.6164 10.388 10.0622 11.0551L6.45721 9.00838C6.56931 8.69291 6.63093 8.35371 6.63093 8.00021C6.63093 7.64679 6.56931 7.30758 6.45721 6.99211L10.0619 4.94486C10.616 5.61221 11.4514 6.03796 12.3844 6.03796C14.0486 6.03796 15.4026 4.68347 15.4026 3.01852C15.4028 1.35406 14.0488 0 12.3845 0C10.7201 0 9.36595 1.35406 9.36595 3.01845C9.36595 3.37195 9.42749 3.71122 9.53967 4.02676L5.93478 6.07408C5.38067 5.40708 4.54551 4.98162 3.61276 4.98162C1.94809 4.98162 0.59375 6.33568 0.59375 8.00014C0.59375 9.66453 1.94809 11.0186 3.61276 11.0186C4.54551 11.0186 5.3806 10.5931 5.93471 9.9262L9.53967 11.973C9.42749 12.2886 9.36588 12.6279 9.36588 12.9815C9.36588 14.6459 10.72 15.9999 12.3845 15.9999C14.0487 15.9999 15.4027 14.6458 15.4027 12.9815C15.4028 11.3168 14.0488 9.9624 12.3845 9.9624ZM12.3845 1.05626C13.4664 1.05626 14.3465 1.93648 14.3465 3.01845C14.3465 4.10098 13.4664 4.98162 12.3845 4.98162C11.3025 4.98162 10.4222 4.10098 10.4222 3.01845C10.4222 1.93648 11.3025 1.05626 12.3845 1.05626ZM3.61283 9.9624C2.53059 9.9624 1.65008 9.08211 1.65008 8.00021C1.65008 6.91817 2.53059 6.03796 3.61283 6.03796C4.69466 6.03796 5.57474 6.91817 5.57474 8.00021C5.57474 9.08211 4.69459 9.9624 3.61283 9.9624ZM12.3845 14.9437C11.3025 14.9437 10.4222 14.0634 10.4222 12.9816C10.4222 11.8992 11.3025 11.0187 12.3845 11.0187C13.4664 11.0187 14.3465 11.8992 14.3465 12.9816C14.3465 14.0634 13.4664 14.9437 12.3845 14.9437Z" fill="#666666"/>
</g>
<defs>
<clipPath id="clip0_381_6652">
<rect width="16" height="16" fill="white"/>
</clipPath>
</defs>
</svg>
