<svg width="16" height="17" viewBox="0 0 16 17" fill="none" xmlns="http://www.w3.org/2000/svg">
<g clip-path="url(#clip0_813_15128)">
<path d="M15.977 6.66433C15.9219 6.49461 15.7752 6.37095 15.5987 6.3453L10.6386 5.62452L8.42035 1.12993C8.34139 0.969933 8.17845 0.868652 8.00001 0.868652C7.82161 0.868652 7.65864 0.969965 7.57967 1.12993L5.3613 5.62455L0.40134 6.3453C0.224777 6.37095 0.0780902 6.49464 0.0229653 6.66433C-0.0321909 6.83402 0.013809 7.0203 0.141559 7.14483L3.73055 10.6434L2.88343 15.5835C2.85327 15.7593 2.92558 15.9371 3.06993 16.0419C3.21424 16.1468 3.40555 16.1606 3.56358 16.0776L7.99998 13.7453L12.4363 16.0777C12.5048 16.1137 12.5797 16.1315 12.6543 16.1315C12.7515 16.1315 12.8483 16.1013 12.9299 16.042C13.0743 15.9371 13.1466 15.7594 13.1164 15.5835L12.269 10.6434L15.8584 7.14486C15.9862 7.0203 16.0322 6.83402 15.977 6.66433ZM11.4382 10.1441C11.3277 10.2518 11.2773 10.4069 11.3034 10.559L12.0318 14.8058L8.21817 12.8008C8.08161 12.729 7.91845 12.729 7.78189 12.8008L3.96799 14.8058L4.69624 10.559C4.7223 10.4069 4.67189 10.2518 4.56146 10.1441L1.47612 7.13648L5.74002 6.51683C5.8927 6.49464 6.02464 6.39877 6.09295 6.26042L7.99998 2.39649L9.90695 6.26039C9.97526 6.39874 10.1072 6.49464 10.2599 6.51683L14.5238 7.13645L11.4382 10.1441Z" fill="#666666"/>
</g>
<defs>
<clipPath id="clip0_813_15128">
<rect width="16" height="16" fill="white" transform="translate(0 0.5)"/>
</clipPath>
</defs>
</svg>
