<svg width="20" height="20" viewBox="0 0 20 20" fill="none" xmlns="http://www.w3.org/2000/svg">
<path d="M8.36076 2.72614C9.03133 1.31346 10.9688 1.31346 11.6394 2.72613L12.7983 5.16761C13.0646 5.72858 13.5793 6.11741 14.1748 6.20736L16.7662 6.59887C18.2656 6.8254 18.8644 8.74125 17.7794 9.84086L15.9042 11.7413C15.4733 12.1779 15.2767 12.8071 15.3784 13.4236L15.8211 16.1071C16.0772 17.6598 14.5098 18.8438 13.1686 18.1107L10.8508 16.8438C10.3182 16.5527 9.68196 16.5527 9.14939 16.8438L6.83155 18.1107C5.49041 18.8438 3.92293 17.6598 4.17907 16.1071L4.62174 13.4236C4.72345 12.8071 4.52684 12.1779 4.09598 11.7413L2.22081 9.84086C1.1358 8.74125 1.73452 6.82541 3.23397 6.59887L5.82539 6.20736C6.42082 6.11741 6.93555 5.72858 7.20184 5.16761L8.36076 2.72614Z" fill="#168500"/>
</svg>
