<svg width="14" height="13" viewBox="0 0 14 13" fill="none" xmlns="http://www.w3.org/2000/svg">
<path d="M13.6991 4.92187C13.6543 4.78397 13.5352 4.68348 13.3917 4.66266L9.36165 4.07702L7.5593 0.425181C7.49516 0.295181 7.36275 0.212891 7.2178 0.212891C7.07282 0.212891 6.94043 0.295181 6.87627 0.425181L5.07384 4.07702L1.04386 4.66266C0.90043 4.68348 0.781221 4.78397 0.736432 4.92184C0.691618 5.05974 0.728993 5.21109 0.832815 5.31227L3.74887 8.15484L3.06058 12.1687C3.03605 12.3116 3.09481 12.4559 3.21208 12.5412C3.27843 12.5893 3.35701 12.6139 3.43598 12.6139C3.49661 12.6139 3.55745 12.5994 3.61315 12.5701L7.21777 10.675L10.8222 12.5701C10.9506 12.6376 11.1061 12.6263 11.2233 12.5411C11.3406 12.4559 11.3994 12.3115 11.3749 12.1686L10.6864 8.15484L13.6028 5.31225C13.7065 5.21109 13.7439 5.05974 13.6991 4.92187Z" fill="#FFC62A"/>
</svg>
