<svg width="23" height="16" viewBox="0 0 23 16" fill="none" xmlns="http://www.w3.org/2000/svg">
<path d="M5.17476 3C5.66814 1.275 7.40832 0 9.47964 0H13.9245C14.91 0.000117948 15.8676 0.294824 16.6468 0.83783C17.426 1.38084 17.9827 2.14138 18.2294 3H18.3694C19.5483 3 20.6789 3.42143 21.5125 4.17157C22.346 4.92172 22.8143 5.93913 22.8143 7V12C22.8143 13.0609 22.346 14.0783 21.5125 14.8284C20.6789 15.5786 19.5483 16 18.3694 16H5.03474C3.85588 16 2.7253 15.5786 1.89172 14.8284C1.05814 14.0783 0.589844 13.0609 0.589844 12V7C0.589844 5.93913 1.05814 4.92172 1.89172 4.17157C2.7253 3.42143 3.85588 3 5.03474 3H5.17476ZM11.7021 13C12.8809 13 14.0115 12.5786 14.8451 11.8284C15.6787 11.0783 16.147 10.0609 16.147 9C16.147 7.93913 15.6787 6.92172 14.8451 6.17157C14.0115 5.42143 12.8809 5 11.7021 5C10.5232 5 9.39265 5.42143 8.55907 6.17157C7.72549 6.92172 7.25719 7.93913 7.25719 9C7.25719 10.0609 7.72549 11.0783 8.55907 11.8284C9.39265 12.5786 10.5232 13 11.7021 13ZM18.3694 8C18.6642 8 18.9468 7.89464 19.1552 7.70711C19.3636 7.51957 19.4807 7.26522 19.4807 7C19.4807 6.73478 19.3636 6.48043 19.1552 6.29289C18.9468 6.10536 18.6642 6 18.3694 6C18.0747 6 17.7921 6.10536 17.5837 6.29289C17.3753 6.48043 17.2582 6.73478 17.2582 7C17.2582 7.26522 17.3753 7.51957 17.5837 7.70711C17.7921 7.89464 18.0747 8 18.3694 8ZM11.7021 11C11.1127 11 10.5474 10.7893 10.1306 10.4142C9.71379 10.0391 9.47964 9.53043 9.47964 9C9.47964 8.46957 9.71379 7.96086 10.1306 7.58579C10.5474 7.21071 11.1127 7 11.7021 7C12.2915 7 12.8568 7.21071 13.2736 7.58579C13.6904 7.96086 13.9245 8.46957 13.9245 9C13.9245 9.53043 13.6904 10.0391 13.2736 10.4142C12.8568 10.7893 12.2915 11 11.7021 11Z" fill="#B8B8B8"/>
</svg>
