<svg width="16" height="17" viewBox="0 0 16 17" fill="none" xmlns="http://www.w3.org/2000/svg">
<path d="M8.00008 8.99992C5.88675 8.99992 4.16675 7.27992 4.16675 5.16658C4.16675 3.05325 5.88675 1.33325 8.00008 1.33325C10.1134 1.33325 11.8334 3.05325 11.8334 5.16658C11.8334 7.27992 10.1134 8.99992 8.00008 8.99992ZM8.00008 2.33325C6.44008 2.33325 5.16675 3.60659 5.16675 5.16658C5.16675 6.72658 6.44008 7.99992 8.00008 7.99992C9.56008 7.99992 10.8334 6.72658 10.8334 5.16658C10.8334 3.60659 9.56008 2.33325 8.00008 2.33325Z" fill="#666666"/>
<path d="M13.7268 15.6667C13.4534 15.6667 13.2268 15.44 13.2268 15.1667C13.2268 12.8667 10.8801 11 8.0001 11C5.1201 11 2.77344 12.8667 2.77344 15.1667C2.77344 15.44 2.54677 15.6667 2.27344 15.6667C2.0001 15.6667 1.77344 15.44 1.77344 15.1667C1.77344 12.32 4.56677 10 8.0001 10C11.4334 10 14.2268 12.32 14.2268 15.1667C14.2268 15.44 14.0001 15.6667 13.7268 15.6667Z" fill="#666666"/>
</svg>
