<svg width="16" height="15" viewBox="0 0 16 15" fill="none" xmlns="http://www.w3.org/2000/svg">
<path fill-rule="evenodd" clip-rule="evenodd" d="M13.3059 2.17206C11.9026 0.76709 10.0363 -0.00698853 8.04807 -0.0078125C3.95108 -0.0078125 0.61673 3.32645 0.615082 7.42453C0.614532 8.73456 0.956757 10.0134 1.60724 11.1406L0.552734 14.9922L4.49307 13.9586C5.5788 14.5508 6.80112 14.8629 8.04504 14.8633H8.04816C12.1447 14.8633 15.4794 11.5287 15.481 7.43048C15.4818 5.44434 14.7094 3.57693 13.3059 2.17206ZM8.04807 13.608H8.0455C6.93698 13.6075 5.84979 13.3096 4.90112 12.7469L4.67563 12.6129L2.33737 13.2263L2.96149 10.9466L2.81454 10.7128C2.19611 9.72919 1.86954 8.59229 1.87009 7.42499C1.87137 4.01877 4.64285 1.24756 8.05054 1.24756C9.70068 1.24811 11.2519 1.89154 12.4182 3.0593C13.5846 4.22705 14.2266 5.77924 14.226 7.43002C14.2246 10.8365 11.4533 13.608 8.04807 13.608ZM11.4368 8.98102C11.2511 8.888 10.338 8.43884 10.1677 8.37677C9.99759 8.31479 9.87363 8.28394 9.74994 8.46979C9.62607 8.65564 9.2702 9.07404 9.1618 9.19791C9.05341 9.32187 8.94519 9.33743 8.75943 9.24442C8.57367 9.15149 7.97528 8.95529 7.26584 8.32257C6.71378 7.83011 6.34106 7.22192 6.23267 7.03607C6.12445 6.85004 6.23175 6.75922 6.31415 6.65704C6.5152 6.40738 6.71652 6.14563 6.77841 6.02176C6.84039 5.8978 6.80936 5.78931 6.76285 5.69638C6.71652 5.60345 6.34509 4.6893 6.19037 4.31732C6.03949 3.95532 5.88651 4.00421 5.77243 3.99854C5.66422 3.99313 5.54034 3.99203 5.41647 3.99203C5.29269 3.99203 5.09146 4.03845 4.92117 4.22449C4.75098 4.41043 4.27124 4.85968 4.27124 5.77383C4.27124 6.68799 4.93674 7.57111 5.02957 7.69507C5.12241 7.81903 6.33923 9.69495 8.20224 10.4993C8.64536 10.6909 8.99124 10.805 9.26105 10.8906C9.70599 11.032 10.1107 11.012 10.4308 10.9642C10.7877 10.9109 11.5295 10.5149 11.6844 10.0811C11.8392 9.64725 11.8392 9.27545 11.7927 9.19791C11.7463 9.12045 11.6225 9.07404 11.4368 8.98102Z" fill="#FFE7F4"/>
</svg>
